# This file uses centimeters as units for non-parametric coordinates.

mtllib ChessPiece.mtl
g default
v 0.867931 0.000000 -1.124505
v 1.460485 0.000000 -0.876538
v 2.053039 0.000000 -1.124505
v 0.619964 0.000000 -1.717059
v 2.301007 0.000000 -1.717059
v 0.867931 0.000000 -2.309613
v 1.460485 0.000000 -2.557580
v 2.053039 0.000000 -2.309613
v 2.006824 0.394197 -1.717059
v 1.845645 0.394197 -2.102219
v 1.460485 0.394197 -2.263398
v 1.075325 0.394197 -2.102219
v 0.914146 0.394197 -1.717059
v 1.075325 0.394197 -1.331899
v 1.460485 0.394197 -1.170720
v 1.845645 0.394197 -1.331899
v 2.006824 0.444215 -1.717059
v 1.845645 0.444215 -2.102219
v 1.460485 0.444215 -2.263398
v 1.075325 0.444215 -2.102219
v 0.914146 0.444215 -1.717059
v 1.075325 0.444215 -1.331899
v 1.460485 0.444215 -1.170720
v 1.845645 0.444215 -1.331899
v 2.090900 0.553850 -1.717059
v 1.904917 0.553850 -2.161491
v 1.460485 0.553850 -2.347474
v 1.016054 0.553850 -2.161491
v 0.830071 0.553850 -1.717059
v 1.016054 0.553850 -1.272627
v 1.460485 0.553850 -1.086645
v 1.904917 0.553850 -1.272627
v 2.017352 0.662526 -1.717059
v 1.853067 0.662526 -2.109641
v 1.460485 0.662526 -2.273925
v 1.067904 0.662526 -2.109641
v 0.903619 0.662526 -1.717059
v 1.067904 0.662526 -1.324477
v 1.460485 0.662526 -1.160193
v 1.853067 0.662526 -1.324477
v 1.738919 0.637564 -1.717059
v 1.656776 0.637564 -1.913350
v 1.460485 0.637564 -1.995492
v 1.264195 0.637564 -1.913350
v 1.182052 0.637564 -1.717059
v 1.264195 0.637564 -1.520768
v 1.460485 0.637564 -1.438626
v 1.656776 0.637564 -1.520768
v 1.999747 0.891336 -1.717059
v 1.840656 0.891336 -2.103098
v 1.460485 0.891336 -2.264644
v 1.080315 0.891336 -2.103098
v 0.921223 0.891336 -1.717059
v 1.080315 0.891336 -1.331021
v 1.460485 0.891336 -1.169474
v 1.840656 0.891336 -1.331021
v 1.721129 1.976004 -1.717059
v 1.644235 1.976004 -1.903644
v 1.460485 1.976004 -1.981725
v 1.276736 1.976004 -1.903644
v 1.199842 1.976004 -1.717059
v 1.276736 1.976004 -1.530474
v 1.460485 1.976004 -1.452393
v 1.644235 1.976004 -1.530474
v 1.773257 2.056139 -1.717059
v 1.680984 2.056139 -1.940961
v 1.460485 2.056139 -2.034658
v 1.239986 2.056139 -1.940961
v 1.147714 2.056139 -1.717059
v 1.239986 2.056139 -1.493157
v 1.460485 2.056139 -1.399460
v 1.680984 2.056139 -1.493157
v 1.705159 2.127473 -1.717059
v 1.632976 2.127473 -1.884986
v 1.460485 2.127473 -1.955259
v 1.287995 2.127473 -1.884986
v 1.215812 2.127473 -1.717059
v 1.287995 2.127473 -1.549132
v 1.460485 2.127473 -1.478860
v 1.632976 2.127473 -1.549132
v 1.705159 2.181241 -1.717059
v 1.632976 2.181241 -1.884986
v 1.460485 2.181241 -1.955259
v 1.287995 2.181241 -1.884986
v 1.215812 2.181241 -1.717059
v 1.287995 2.181241 -1.549132
v 1.460485 2.181241 -1.478860
v 1.632976 2.181241 -1.549132
v 1.815386 2.295088 -1.717059
v 1.710685 2.295088 -1.968949
v 1.460485 2.295088 -2.074358
v 1.210286 2.295088 -1.968949
v 1.105584 2.295088 -1.717059
v 1.210286 2.295088 -1.465169
v 1.460485 2.295088 -1.359760
v 1.710685 2.295088 -1.465169
v 1.815386 2.460368 -1.717059
v 1.710685 2.460368 -1.968949
v 1.460485 2.460368 -2.074358
v 1.210286 2.460368 -1.968949
v 1.105584 2.460368 -1.717059
v 1.210286 2.460368 -1.465169
v 1.460485 2.460368 -1.359760
v 1.710685 2.460368 -1.465169
v 1.726661 2.608788 -1.717059
v 1.648135 2.608788 -1.905977
v 1.460485 2.608788 -1.985034
v 1.272836 2.608788 -1.905977
v 1.194310 2.608788 -1.717059
v 1.272836 2.608788 -1.528141
v 1.460485 2.608788 -1.449085
v 1.648135 2.608788 -1.528141
v 1.635943 2.676367 -1.717059
v 1.584180 2.676367 -1.849301
v 1.460485 2.676367 -1.904641
v 1.336791 2.676367 -1.849301
v 1.285028 2.676367 -1.717059
v 1.336791 2.676367 -1.584817
v 1.460485 2.676367 -1.529477
v 1.584180 2.676367 -1.584817
v 1.460485 2.676367 -1.717059
v 1.460485 0.000000 -1.717059
vt 0.000000 0.000000
vt 0.500000 0.000000
vt 1.000000 0.000000
vt 0.000000 0.500000
vt 1.000000 0.500000
vt 0.000000 1.000000
vt 0.500000 1.000000
vt 1.000000 1.000000
vt 1.000000 0.500000
vt 1.000000 1.000000
vt 0.500000 1.000000
vt 0.000000 1.000000
vt 0.000000 0.500000
vt 0.000000 0.000000
vt 0.500000 0.000000
vt 1.000000 0.000000
vt 1.000000 0.500000
vt 1.000000 1.000000
vt 0.500000 1.000000
vt 0.000000 1.000000
vt 0.000000 0.500000
vt 0.000000 0.000000
vt 0.500000 0.000000
vt 1.000000 0.000000
vt 1.000000 0.500000
vt 1.000000 1.000000
vt 0.500000 1.000000
vt 0.000000 1.000000
vt 0.000000 0.500000
vt 0.000000 0.000000
vt 0.500000 0.000000
vt 1.000000 0.000000
vt 1.000000 0.500000
vt 1.000000 1.000000
vt 0.500000 1.000000
vt 0.000000 1.000000
vt 0.000000 0.500000
vt 0.000000 0.000000
vt 0.500000 0.000000
vt 1.000000 0.000000
vt 1.000000 0.500000
vt 1.000000 1.000000
vt 0.500000 1.000000
vt 0.000000 1.000000
vt 0.000000 0.500000
vt 0.000000 0.000000
vt 0.500000 0.000000
vt 1.000000 0.000000
vt 1.000000 0.500000
vt 1.000000 1.000000
vt 0.500000 1.000000
vt 0.000000 1.000000
vt 0.000000 0.500000
vt 0.000000 0.000000
vt 0.500000 0.000000
vt 1.000000 0.000000
vt 1.000000 0.500000
vt 1.000000 1.000000
vt 0.500000 1.000000
vt 0.000000 1.000000
vt 0.000000 0.500000
vt 0.000000 0.000000
vt 0.500000 0.000000
vt 1.000000 0.000000
vt 1.000000 0.500000
vt 1.000000 1.000000
vt 0.500000 1.000000
vt 0.000000 1.000000
vt 0.000000 0.500000
vt 0.000000 0.000000
vt 0.500000 0.000000
vt 1.000000 0.000000
vt 1.000000 0.500000
vt 1.000000 1.000000
vt 0.500000 1.000000
vt 0.000000 1.000000
vt 0.000000 0.500000
vt 0.000000 0.000000
vt 0.500000 0.000000
vt 1.000000 0.000000
vt 1.000000 0.500000
vt 1.000000 1.000000
vt 0.500000 1.000000
vt 0.000000 1.000000
vt 0.000000 0.500000
vt 0.000000 0.000000
vt 0.500000 0.000000
vt 1.000000 0.000000
vt 1.000000 0.500000
vt 1.000000 1.000000
vt 0.500000 1.000000
vt 0.000000 1.000000
vt 0.000000 0.500000
vt 0.000000 0.000000
vt 0.500000 0.000000
vt 1.000000 0.000000
vt 1.000000 0.500000
vt 1.000000 1.000000
vt 0.500000 1.000000
vt 0.000000 1.000000
vt 0.000000 0.500000
vt 0.000000 0.000000
vt 0.500000 0.000000
vt 1.000000 0.000000
vt 1.000000 0.500000
vt 1.000000 1.000000
vt 0.500000 1.000000
vt 0.000000 1.000000
vt 0.000000 0.500000
vt 0.000000 0.000000
vt 0.500000 0.000000
vt 1.000000 0.000000
vt 1.000000 0.500000
vt 1.000000 1.000000
vt 0.500000 1.000000
vt 0.000000 1.000000
vt 0.000000 0.500000
vt 0.000000 0.000000
vt 0.500000 0.000000
vt 1.000000 0.000000
vt 1.000000 0.500000
vt 1.000000 1.000000
vt 0.500000 1.000000
vt 0.000000 1.000000
vt 0.000000 0.500000
vt 0.000000 0.000000
vt 0.500000 0.000000
vt 1.000000 0.000000
vt 0.500000 0.500000
vt 0.500000 0.500000
vn 0.000000 1.000000 0.000000
vn 0.000000 1.000000 0.000000
vn 0.000000 1.000000 -0.000000
vn 0.000000 1.000000 0.000000
vn 0.000000 -1.000000 0.000000
vn 0.000000 -1.000000 0.000000
vn 0.000000 -1.000000 0.000000
vn 0.000000 -1.000000 0.000000
vn 0.759835 0.567051 -0.317970
vn 0.759835 0.567051 -0.317970
vn 0.759835 0.567051 -0.317970
vn 0.759835 0.567051 -0.317970
vn 0.317970 0.567051 -0.759834
vn 0.317970 0.567051 -0.759835
vn 0.317970 0.567051 -0.759835
vn 0.317970 0.567051 -0.759835
vn -0.317970 0.567051 -0.759835
vn -0.317970 0.567051 -0.759835
vn -0.317970 0.567051 -0.759835
vn -0.317970 0.567051 -0.759835
vn -0.759835 0.567051 -0.317970
vn -0.759834 0.567051 -0.317970
vn -0.759835 0.567051 -0.317970
vn -0.759835 0.567051 -0.317970
vn -0.759835 0.567051 0.317970
vn -0.759835 0.567051 0.317970
vn -0.759835 0.567051 0.317970
vn -0.759835 0.567051 0.317970
vn -0.317970 0.567051 0.759835
vn -0.317970 0.567051 0.759835
vn -0.317970 0.567051 0.759835
vn -0.317970 0.567051 0.759835
vn 0.317970 0.567051 0.759835
vn 0.317970 0.567051 0.759835
vn 0.317970 0.567051 0.759834
vn 0.317970 0.567051 0.759835
vn 0.759835 0.567050 0.317970
vn 0.759835 0.567050 0.317970
vn 0.759835 0.567051 0.317970
vn 0.759835 0.567050 0.317970
vn 0.922484 0.000000 -0.386035
vn 0.922484 0.000000 -0.386035
vn 0.922484 0.000000 -0.386035
vn 0.922484 0.000000 -0.386035
vn 0.386035 0.000000 -0.922484
vn 0.386035 0.000000 -0.922484
vn 0.386035 0.000000 -0.922484
vn 0.386035 0.000000 -0.922484
vn -0.386035 0.000000 -0.922484
vn -0.386035 0.000000 -0.922484
vn -0.386035 0.000000 -0.922484
vn -0.386035 0.000000 -0.922484
vn -0.922485 0.000000 -0.386034
vn -0.922485 0.000000 -0.386034
vn -0.922485 0.000000 -0.386034
vn -0.922485 0.000000 -0.386034
vn -0.922485 0.000000 0.386034
vn -0.922485 0.000000 0.386034
vn -0.922485 0.000000 0.386034
vn -0.922485 0.000000 0.386034
vn -0.386034 0.000000 0.922484
vn -0.386034 0.000000 0.922484
vn -0.386034 0.000000 0.922484
vn -0.386034 0.000000 0.922484
vn 0.386035 0.000000 0.922484
vn 0.386035 0.000000 0.922484
vn 0.386035 0.000000 0.922484
vn 0.386035 0.000000 0.922484
vn 0.922484 0.000000 0.386035
vn 0.922484 0.000000 0.386035
vn 0.922484 0.000000 0.386035
vn 0.922484 0.000000 0.386035
vn 0.753094 -0.577522 -0.315149
vn 0.753094 -0.577522 -0.315149
vn 0.753094 -0.577522 -0.315149
vn 0.753094 -0.577522 -0.315149
vn 0.315149 -0.577522 -0.753093
vn 0.315149 -0.577522 -0.753093
vn 0.315149 -0.577522 -0.753093
vn 0.315149 -0.577522 -0.753093
vn -0.315149 -0.577522 -0.753094
vn -0.315149 -0.577522 -0.753094
vn -0.315149 -0.577522 -0.753094
vn -0.315149 -0.577522 -0.753094
vn -0.753094 -0.577522 -0.315149
vn -0.753094 -0.577522 -0.315149
vn -0.753094 -0.577522 -0.315149
vn -0.753094 -0.577522 -0.315149
vn -0.753094 -0.577522 0.315149
vn -0.753093 -0.577522 0.315149
vn -0.753094 -0.577522 0.315149
vn -0.753093 -0.577522 0.315149
vn -0.315149 -0.577521 0.753094
vn -0.315149 -0.577521 0.753094
vn -0.315149 -0.577521 0.753094
vn -0.315149 -0.577521 0.753094
vn 0.315149 -0.577522 0.753093
vn 0.315149 -0.577522 0.753093
vn 0.315149 -0.577522 0.753093
vn 0.315149 -0.577522 0.753093
vn 0.753093 -0.577522 0.315149
vn 0.753093 -0.577522 0.315149
vn 0.753093 -0.577522 0.315149
vn 0.753093 -0.577522 0.315149
vn 0.782509 0.529575 -0.327459
vn 0.782509 0.529575 -0.327459
vn 0.782509 0.529575 -0.327459
vn 0.782509 0.529575 -0.327459
vn 0.327459 0.529576 -0.782509
vn 0.327459 0.529576 -0.782509
vn 0.327459 0.529576 -0.782509
vn 0.327459 0.529576 -0.782509
vn -0.327459 0.529576 -0.782509
vn -0.327459 0.529576 -0.782509
vn -0.327459 0.529576 -0.782509
vn -0.327459 0.529576 -0.782509
vn -0.782509 0.529576 -0.327459
vn -0.782509 0.529576 -0.327459
vn -0.782509 0.529576 -0.327459
vn -0.782509 0.529576 -0.327459
vn -0.782509 0.529576 0.327459
vn -0.782509 0.529576 0.327459
vn -0.782509 0.529576 0.327459
vn -0.782509 0.529576 0.327459
vn -0.327459 0.529576 0.782509
vn -0.327459 0.529576 0.782509
vn -0.327459 0.529576 0.782509
vn -0.327459 0.529576 0.782509
vn 0.327459 0.529576 0.782509
vn 0.327459 0.529576 0.782509
vn 0.327459 0.529576 0.782509
vn 0.327459 0.529576 0.782509
vn 0.782509 0.529575 0.327459
vn 0.782509 0.529575 0.327459
vn 0.782509 0.529575 0.327459
vn 0.782509 0.529575 0.327459
vn -0.089294 0.996005 0.000000
vn -0.063329 0.995981 0.063329
vn -0.063329 0.995981 0.063329
vn -0.089294 0.996005 -0.000000
vn 0.000000 0.996005 0.089294
vn 0.000000 0.996005 0.089294
vn 0.063329 0.995981 0.063329
vn 0.063329 0.995981 0.063329
vn 0.089294 0.996005 -0.000000
vn 0.089294 0.996005 -0.000000
vn 0.063329 0.995981 -0.063329
vn 0.063329 0.995981 -0.063329
vn 0.000000 0.996005 -0.089294
vn -0.000000 0.996005 -0.089294
vn -0.063329 0.995981 -0.063329
vn -0.063329 0.995981 -0.063329
vn 0.668943 -0.689727 -0.277114
vn 0.668943 -0.689727 -0.277114
vn 0.668943 -0.689727 -0.277114
vn 0.668943 -0.689727 -0.277114
vn 0.278947 -0.697684 -0.659868
vn 0.278947 -0.697684 -0.659868
vn 0.278947 -0.697684 -0.659868
vn 0.278947 -0.697684 -0.659868
vn -0.278947 -0.697684 -0.659867
vn -0.278947 -0.697684 -0.659867
vn -0.278947 -0.697684 -0.659867
vn -0.278947 -0.697684 -0.659867
vn -0.668943 -0.689727 -0.277114
vn -0.668943 -0.689727 -0.277114
vn -0.668943 -0.689727 -0.277114
vn -0.668943 -0.689727 -0.277114
vn -0.668943 -0.689727 0.277114
vn -0.668943 -0.689727 0.277114
vn -0.668943 -0.689727 0.277114
vn -0.668943 -0.689727 0.277114
vn -0.278947 -0.697684 0.659867
vn -0.278947 -0.697684 0.659867
vn -0.278947 -0.697684 0.659867
vn -0.278947 -0.697684 0.659867
vn 0.278948 -0.697684 0.659868
vn 0.278948 -0.697684 0.659867
vn 0.278948 -0.697684 0.659867
vn 0.278948 -0.697684 0.659867
vn 0.668943 -0.689726 0.277114
vn 0.668943 -0.689726 0.277114
vn 0.668943 -0.689726 0.277114
vn 0.668943 -0.689726 0.277114
vn 0.899545 0.231066 -0.370713
vn 0.899545 0.231066 -0.370713
vn 0.899545 0.231066 -0.370713
vn 0.899545 0.231066 -0.370713
vn 0.380283 0.233428 -0.894928
vn 0.380283 0.233428 -0.894928
vn 0.380283 0.233428 -0.894928
vn 0.380283 0.233428 -0.894928
vn -0.380283 0.233428 -0.894928
vn -0.380283 0.233428 -0.894928
vn -0.380283 0.233428 -0.894928
vn -0.380283 0.233428 -0.894928
vn -0.899545 0.231066 -0.370713
vn -0.899545 0.231066 -0.370713
vn -0.899545 0.231066 -0.370713
vn -0.899545 0.231066 -0.370713
vn -0.899545 0.231066 0.370713
vn -0.899545 0.231066 0.370713
vn -0.899545 0.231066 0.370713
vn -0.899545 0.231066 0.370713
vn -0.380283 0.233428 0.894928
vn -0.380283 0.233428 0.894928
vn -0.380283 0.233428 0.894928
vn -0.380283 0.233428 0.894928
vn 0.380283 0.233428 0.894928
vn 0.380283 0.233428 0.894928
vn 0.380283 0.233428 0.894928
vn 0.380283 0.233428 0.894928
vn 0.899545 0.231066 0.370713
vn 0.899545 0.231066 0.370713
vn 0.899545 0.231066 0.370713
vn 0.899545 0.231066 0.370713
vn 0.792305 -0.515402 -0.326519
vn 0.792305 -0.515401 -0.326519
vn 0.792305 -0.515402 -0.326519
vn 0.792305 -0.515401 -0.326519
vn 0.334179 -0.519475 -0.786429
vn 0.334179 -0.519475 -0.786429
vn 0.334179 -0.519475 -0.786429
vn 0.334179 -0.519475 -0.786429
vn -0.334178 -0.519475 -0.786429
vn -0.334178 -0.519475 -0.786429
vn -0.334178 -0.519475 -0.786429
vn -0.334178 -0.519475 -0.786429
vn -0.792305 -0.515401 -0.326518
vn -0.792305 -0.515401 -0.326518
vn -0.792305 -0.515401 -0.326518
vn -0.792305 -0.515401 -0.326518
vn -0.792306 -0.515401 0.326518
vn -0.792306 -0.515401 0.326518
vn -0.792306 -0.515401 0.326518
vn -0.792306 -0.515401 0.326518
vn -0.334179 -0.519475 0.786429
vn -0.334179 -0.519475 0.786429
vn -0.334179 -0.519475 0.786429
vn -0.334179 -0.519475 0.786429
vn 0.334178 -0.519475 0.786429
vn 0.334178 -0.519475 0.786429
vn 0.334178 -0.519475 0.786429
vn 0.334178 -0.519475 0.786429
vn 0.792305 -0.515401 0.326518
vn 0.792305 -0.515401 0.326518
vn 0.792305 -0.515401 0.326518
vn 0.792305 -0.515401 0.326518
vn 0.684607 0.669888 -0.287338
vn 0.684607 0.669888 -0.287338
vn 0.684607 0.669888 -0.287338
vn 0.684607 0.669888 -0.287338
vn 0.271561 0.708972 -0.650856
vn 0.271561 0.708972 -0.650856
vn 0.271561 0.708972 -0.650856
vn 0.271561 0.708972 -0.650856
vn -0.271561 0.708972 -0.650856
vn -0.271561 0.708972 -0.650856
vn -0.271561 0.708971 -0.650856
vn -0.271561 0.708972 -0.650856
vn -0.684606 0.669890 -0.287337
vn -0.684606 0.669890 -0.287337
vn -0.684606 0.669890 -0.287337
vn -0.684606 0.669890 -0.287337
vn -0.684606 0.669889 0.287338
vn -0.684606 0.669889 0.287338
vn -0.684606 0.669889 0.287338
vn -0.684606 0.669889 0.287338
vn -0.271561 0.708972 0.650856
vn -0.271561 0.708972 0.650856
vn -0.271561 0.708972 0.650856
vn -0.271561 0.708972 0.650856
vn 0.271561 0.708972 0.650856
vn 0.271561 0.708972 0.650856
vn 0.271561 0.708972 0.650856
vn 0.271561 0.708972 0.650856
vn 0.684606 0.669889 0.287338
vn 0.684606 0.669889 0.287338
vn 0.684606 0.669889 0.287338
vn 0.684606 0.669889 0.287338
vn 0.918720 0.000000 -0.394910
vn 0.918720 0.000000 -0.394910
vn 0.918720 0.000000 -0.394910
vn 0.918720 0.000000 -0.394910
vn 0.377291 0.000000 -0.926095
vn 0.377291 0.000000 -0.926095
vn 0.377291 0.000000 -0.926095
vn 0.377291 0.000000 -0.926095
vn -0.377291 0.000000 -0.926095
vn -0.377291 0.000000 -0.926095
vn -0.377291 0.000000 -0.926095
vn -0.377291 0.000000 -0.926095
vn -0.918720 0.000000 -0.394910
vn -0.918720 0.000000 -0.394910
vn -0.918720 0.000000 -0.394910
vn -0.918720 0.000000 -0.394910
vn -0.918720 0.000000 0.394909
vn -0.918720 0.000000 0.394909
vn -0.918720 0.000000 0.394909
vn -0.918720 0.000000 0.394909
vn -0.377290 0.000000 0.926095
vn -0.377290 0.000000 0.926095
vn -0.377290 0.000000 0.926095
vn -0.377290 0.000000 0.926095
vn 0.377290 0.000000 0.926095
vn 0.377290 0.000000 0.926095
vn 0.377290 0.000000 0.926095
vn 0.377290 0.000000 0.926095
vn 0.918720 0.000000 0.394909
vn 0.918720 0.000000 0.394909
vn 0.918720 0.000000 0.394909
vn 0.918720 0.000000 0.394909
vn 0.683679 -0.670526 -0.288058
vn 0.683679 -0.670526 -0.288058
vn 0.683679 -0.670526 -0.288058
vn 0.683679 -0.670526 -0.288058
vn 0.277626 -0.690464 -0.667970
vn 0.277626 -0.690464 -0.667970
vn 0.277626 -0.690464 -0.667970
vn 0.277626 -0.690464 -0.667970
vn -0.277626 -0.690463 -0.667970
vn -0.277626 -0.690463 -0.667970
vn -0.277626 -0.690463 -0.667970
vn -0.277626 -0.690463 -0.667970
vn -0.683678 -0.670527 -0.288058
vn -0.683678 -0.670527 -0.288058
vn -0.683678 -0.670527 -0.288058
vn -0.683678 -0.670527 -0.288058
vn -0.683678 -0.670527 0.288059
vn -0.683678 -0.670527 0.288059
vn -0.683678 -0.670527 0.288059
vn -0.683678 -0.670527 0.288059
vn -0.277627 -0.690464 0.667969
vn -0.277627 -0.690464 0.667969
vn -0.277627 -0.690464 0.667969
vn -0.277627 -0.690464 0.667969
vn 0.277627 -0.690464 0.667969
vn 0.277627 -0.690464 0.667969
vn 0.277627 -0.690464 0.667969
vn 0.277627 -0.690464 0.667969
vn 0.683679 -0.670527 0.288059
vn 0.683679 -0.670527 0.288059
vn 0.683679 -0.670527 0.288059
vn 0.683679 -0.670527 0.288059
vn 0.923405 0.000000 -0.383826
vn 0.923405 0.000000 -0.383826
vn 0.900947 0.219204 -0.374491
vn 0.900938 0.219248 -0.374487
vn 0.388251 0.000000 -0.921554
vn 0.388251 0.000000 -0.921554
vn 0.378745 0.219935 -0.898989
vn 0.378678 0.220697 -0.898830
vn -0.388250 0.000000 -0.921554
vn -0.388250 0.000000 -0.921554
vn -0.378678 0.220697 -0.898831
vn -0.378745 0.219935 -0.898989
vn -0.923406 0.000001 -0.383826
vn -0.923406 0.000001 -0.383826
vn -0.900938 0.219248 -0.374487
vn -0.900948 0.219203 -0.374491
vn -0.923406 -0.000000 0.383826
vn -0.923406 -0.000000 0.383826
vn -0.900948 0.219203 0.374491
vn -0.900939 0.219247 0.374487
vn -0.388251 -0.000001 0.921554
vn -0.388251 -0.000001 0.921554
vn -0.378745 0.219934 0.898989
vn -0.378678 0.220696 0.898831
vn 0.388251 -0.000000 0.921553
vn 0.388251 -0.000000 0.921554
vn 0.378678 0.220696 0.898830
vn 0.378745 0.219934 0.898989
vn 0.923405 0.000000 0.383826
vn 0.923405 0.000000 0.383826
vn 0.900938 0.219247 0.374487
vn 0.900947 0.219203 0.374491
vn 0.577510 0.587067 -0.567304
vn 0.805920 0.592024 -0.000000
vn 0.325148 0.551479 -0.768212
vn -0.577510 0.587067 -0.567304
vn -0.325148 0.551479 -0.768212
vn -0.805920 0.592025 -0.000000
vn -0.577510 0.587067 0.567304
vn -0.325147 0.551479 0.768212
vn 0.577510 0.587067 0.567305
vn 0.325147 0.551479 0.768213
vn 0.443186 0.783874 -0.434888
vn 0.605462 0.795874 -0.000000
vn 0.264137 0.745527 -0.611899
vn -0.443185 0.783874 -0.434888
vn -0.264137 0.745527 -0.611900
vn -0.605461 0.795875 -0.000000
vn -0.443185 0.783875 0.434888
vn -0.264136 0.745527 0.611899
vn 0.443186 0.783874 0.434888
vn 0.264137 0.745528 0.611898
vn 0.000000 1.000000 0.000000
vn 0.000000 1.000000 -0.000001
vn 0.000000 1.000000 0.000001
vn 0.000000 1.000000 0.000001
vn 0.000000 1.000000 0.000001
vn 0.000000 -1.000000 0.000000
vn 0.000000 -1.000000 0.000000
vn 0.000000 -1.000000 0.000000
vn 0.000000 -1.000000 0.000000
vn 0.000000 -1.000000 0.000000
s 1
g pPlane1
usemtl initialShadingGroup
f 113/121/1 114/122/2 115/123/3 121/129/4
s 2
f 5/9/5 3/16/6 2/15/7 122/130/8
s off
f 5/5/9 8/8/10 10/18/11 9/17/12
f 8/8/13 7/7/14 11/19/15 10/18/16
f 7/7/17 6/6/18 12/20/19 11/19/20
f 6/6/21 4/4/22 13/21/23 12/20/24
f 4/4/25 1/1/26 14/22/27 13/21/28
f 1/1/29 2/2/30 15/23/31 14/22/32
f 2/2/33 3/3/34 16/24/35 15/23/36
f 3/3/37 5/5/38 9/17/39 16/24/40
f 9/17/41 10/18/42 18/26/43 17/25/44
f 10/18/45 11/19/46 19/27/47 18/26/48
f 11/19/49 12/20/50 20/28/51 19/27/52
f 12/20/53 13/21/54 21/29/55 20/28/56
f 13/21/57 14/22/58 22/30/59 21/29/60
f 14/22/61 15/23/62 23/31/63 22/30/64
f 15/23/65 16/24/66 24/32/67 23/31/68
f 16/24/69 9/17/70 17/25/71 24/32/72
f 17/25/73 18/26/74 26/34/75 25/33/76
f 18/26/77 19/27/78 27/35/79 26/34/80
f 19/27/81 20/28/82 28/36/83 27/35/84
f 20/28/85 21/29/86 29/37/87 28/36/88
f 21/29/89 22/30/90 30/38/91 29/37/92
f 22/30/93 23/31/94 31/39/95 30/38/96
f 23/31/97 24/32/98 32/40/99 31/39/100
f 24/32/101 17/25/102 25/33/103 32/40/104
f 25/33/105 26/34/106 34/42/107 33/41/108
f 26/34/109 27/35/110 35/43/111 34/42/112
f 27/35/113 28/36/114 36/44/115 35/43/116
f 28/36/117 29/37/118 37/45/119 36/44/120
f 29/37/121 30/38/122 38/46/123 37/45/124
f 30/38/125 31/39/126 39/47/127 38/46/128
f 31/39/129 32/40/130 40/48/131 39/47/132
f 32/40/133 25/33/134 33/41/135 40/48/136
s 3
f 33/41/137 34/42/138 42/50/139 41/49/140
f 34/42/138 35/43/141 43/51/142 42/50/139
f 35/43/141 36/44/143 44/52/144 43/51/142
f 36/44/143 37/45/145 45/53/146 44/52/144
f 37/45/145 38/46/147 46/54/148 45/53/146
f 38/46/147 39/47/149 47/55/150 46/54/148
f 39/47/149 40/48/151 48/56/152 47/55/150
f 40/48/151 33/41/137 41/49/140 48/56/152
s off
f 41/49/153 42/50/154 50/58/155 49/57/156
f 42/50/157 43/51/158 51/59/159 50/58/160
f 43/51/161 44/52/162 52/60/163 51/59/164
f 44/52/165 45/53/166 53/61/167 52/60/168
f 45/53/169 46/54/170 54/62/171 53/61/172
f 46/54/173 47/55/174 55/63/175 54/62/176
f 47/55/177 48/56/178 56/64/179 55/63/180
f 48/56/181 41/49/182 49/57/183 56/64/184
f 49/57/185 50/58/186 58/66/187 57/65/188
f 50/58/189 51/59/190 59/67/191 58/66/192
f 51/59/193 52/60/194 60/68/195 59/67/196
f 52/60/197 53/61/198 61/69/199 60/68/200
f 53/61/201 54/62/202 62/70/203 61/69/204
f 54/62/205 55/63/206 63/71/207 62/70/208
f 55/63/209 56/64/210 64/72/211 63/71/212
f 56/64/213 49/57/214 57/65/215 64/72/216
f 57/65/217 58/66/218 66/74/219 65/73/220
f 58/66/221 59/67/222 67/75/223 66/74/224
f 59/67/225 60/68/226 68/76/227 67/75/228
f 60/68/229 61/69/230 69/77/231 68/76/232
f 61/69/233 62/70/234 70/78/235 69/77/236
f 62/70/237 63/71/238 71/79/239 70/78/240
f 63/71/241 64/72/242 72/80/243 71/79/244
f 64/72/245 57/65/246 65/73/247 72/80/248
f 65/73/249 66/74/250 74/82/251 73/81/252
f 66/74/253 67/75/254 75/83/255 74/82/256
f 67/75/257 68/76/258 76/84/259 75/83/260
f 68/76/261 69/77/262 77/85/263 76/84/264
f 69/77/265 70/78/266 78/86/267 77/85/268
f 70/78/269 71/79/270 79/87/271 78/86/272
f 71/79/273 72/80/274 80/88/275 79/87/276
f 72/80/277 65/73/278 73/81/279 80/88/280
f 73/81/281 74/82/282 82/90/283 81/89/284
f 74/82/285 75/83/286 83/91/287 82/90/288
f 75/83/289 76/84/290 84/92/291 83/91/292
f 76/84/293 77/85/294 85/93/295 84/92/296
f 77/85/297 78/86/298 86/94/299 85/93/300
f 78/86/301 79/87/302 87/95/303 86/94/304
f 79/87/305 80/88/306 88/96/307 87/95/308
f 80/88/309 73/81/310 81/89/311 88/96/312
f 81/89/313 82/90/314 90/98/315 89/97/316
f 82/90/317 83/91/318 91/99/319 90/98/320
f 83/91/321 84/92/322 92/100/323 91/99/324
f 84/92/325 85/93/326 93/101/327 92/100/328
f 85/93/329 86/94/330 94/102/331 93/101/332
f 86/94/333 87/95/334 95/103/335 94/102/336
f 87/95/337 88/96/338 96/104/339 95/103/340
f 88/96/341 81/89/342 89/97/343 96/104/344
s 4
f 89/97/345 90/98/346 98/106/347 97/105/348
f 90/98/349 91/99/350 99/107/351 98/106/352
s 6
f 91/99/353 92/100/354 100/108/355 99/107/356
f 92/100/357 93/101/358 101/109/359 100/108/360
f 93/101/361 94/102/362 102/110/363 101/109/364
f 94/102/365 95/103/366 103/111/367 102/110/368
s 4
f 95/103/369 96/104/370 104/112/371 103/111/372
f 96/104/373 89/97/374 97/105/375 104/112/376
f 97/105/348 98/106/347 106/114/377 105/113/378
f 98/106/352 99/107/351 107/115/379 106/114/377
s 6
f 99/107/356 100/108/355 108/116/380 107/115/381
f 100/108/360 101/109/359 109/117/382 108/116/380
f 101/109/364 102/110/363 110/118/383 109/117/382
f 102/110/368 103/111/367 111/119/384 110/118/383
s 4
f 103/111/372 104/112/371 112/120/385 111/119/386
f 104/112/376 97/105/375 105/113/378 112/120/385
f 105/113/378 106/114/377 114/122/387 113/121/388
f 106/114/377 107/115/379 115/123/389 114/122/387
s 6
f 107/115/381 108/116/380 116/124/390 115/123/391
f 108/116/380 109/117/382 117/125/392 116/124/390
f 109/117/382 110/118/383 118/126/393 117/125/392
f 110/118/383 111/119/384 119/127/394 118/126/393
s 4
f 111/119/386 112/120/385 120/128/395 119/127/396
f 112/120/385 105/113/378 113/121/388 120/128/395
s 1
f 117/125/397 121/129/4 115/123/3 116/124/398
f 119/127/399 121/129/4 117/125/397 118/126/400
f 113/121/1 121/129/4 119/127/399 120/128/401
s 2
f 4/13/402 122/130/8 2/15/7 1/14/403
f 7/11/404 122/130/8 4/13/402 6/12/405
f 5/9/5 122/130/8 7/11/404 8/10/406
