# This file uses centimeters as units for non-parametric coordinates.

mtllib InsideBend_lp.mtl
g default
v 0.997018 0.000000 -0.000000
v 0.499424 0.000000 0.000000
v 0.000000 0.000000 0.000000
v 0.997018 1.225404 -0.000000
v 0.499424 0.700000 0.000000
v 0.000000 0.300000 0.000000
v 1.549639 1.225405 -1.519900
v 1.248746 0.700000 -1.920092
v 0.932876 0.300000 -2.308115
v 1.549639 0.000000 -1.519900
v 1.239000 0.000000 -1.910632
v 0.930799 0.000000 -2.306041
v 3.000000 1.225404 -2.000519
v 3.000000 0.700000 -2.500519
v 3.000000 0.300000 -3.000519
v 3.000000 0.000000 -2.000519
v 3.000000 0.000000 -2.500519
v 3.000000 0.000000 -3.000519
v 2.176230 1.225404 -1.887785
v 2.176230 0.000000 -1.887785
v 2.012191 0.000000 -2.376983
v 1.850718 0.000000 -2.868743
v 1.850718 0.300000 -2.868743
v 2.012191 0.700000 -2.376983
v 1.109661 1.225404 -0.868120
v 1.109661 0.000000 -0.868120
v 0.673379 0.000000 -1.076326
v 0.216443 0.000000 -1.270401
v 0.216443 0.300000 -1.270401
v 0.674810 0.700000 -1.077570
v 2.564484 0.000000 -1.972957
v 2.564484 1.225404 -1.972957
v 2.474859 0.700000 -2.471256
v 2.386591 0.300000 -2.970912
v 2.386591 0.000000 -2.970912
v 2.474859 0.000000 -2.471256
v 1.840748 1.225404 -1.738881
v 1.840748 0.000000 -1.738881
v 1.598808 0.000000 -2.190402
v 1.365778 0.000000 -2.650820
v 1.369529 0.300000 -2.654564
v 1.610290 0.700000 -2.201865
v 1.293019 0.000000 -1.228265
v 1.293019 1.225404 -1.228265
v 0.921388 0.700000 -1.542018
v 0.527523 0.300000 -1.839154
v 0.526838 0.000000 -1.838471
v 0.916097 0.000000 -1.536974
v 1.018692 1.225404 -0.451287
v 1.018692 0.000000 -0.451287
v 0.536207 0.000000 -0.550100
v 0.047183 0.000000 -0.647645
v 0.047183 0.300000 -0.647645
v 0.536260 0.700000 -0.550100
v 0.999308 1.225404 -0.227372
v 0.999308 0.000000 -0.227372
v 0.503737 0.000000 -0.276381
v 0.008184 0.000000 -0.325389
v 0.008184 0.300000 -0.325389
v 0.503737 0.700000 -0.276381
v 1.053148 0.000000 -0.665769
v 1.053148 1.225404 -0.665769
v 0.589773 0.700000 -0.818521
v 0.117955 0.300000 -0.963663
v 0.117955 0.000000 -0.963663
v 0.589632 0.000000 -0.818521
v 1.186076 1.225404 -1.056193
v 1.186076 -0.000000 -1.056193
v 0.778519 -0.000000 -1.316663
v 0.359890 -0.000000 -1.564905
v 0.359953 0.300000 -1.564905
v 0.781958 0.700000 -1.319706
v 1.416598 0.000000 -1.383084
v 1.416598 1.225404 -1.383084
v 1.076013 0.700000 -1.742568
v 0.721255 0.300000 -2.087566
v 0.719839 0.000000 -2.086215
v 1.068617 0.000000 -1.735366
v 1.692248 1.225404 -1.638442
v 1.692248 0.000000 -1.638442
v 1.413308 0.000000 -2.062263
v 1.144331 0.000000 -2.496909
v 1.147160 0.300000 -2.499735
v 1.425055 0.700000 -2.073991
v 2.001776 0.000000 -1.821739
v 2.001776 1.225404 -1.821739
v 1.804098 0.700000 -2.300658
v 1.605413 0.300000 -2.778572
v 1.600763 0.000000 -2.773929
v 1.799169 0.000000 -2.295737
v 2.363952 1.225404 -1.937903
v 2.363952 0.000000 -1.937903
v 2.235569 0.000000 -2.433105
v 2.109571 0.000000 -2.930689
v 2.109571 0.300000 -2.930689
v 2.235569 0.700000 -2.433105
v 2.776956 0.000000 -1.993670
v 2.776956 1.225404 -1.993670
v 2.730000 0.700000 -2.493312
v 2.683433 0.300000 -2.993342
v 2.683433 0.000000 -2.993342
v 2.730000 0.000000 -2.493312
vt 0.430738 0.009310
vt 0.351660 0.009310
vt 0.739252 0.009310
vt 0.624543 0.009310
vt 0.887968 0.009310
vt 0.840522 0.009310
vt 0.840522 0.483778
vt 0.967046 0.483778
vt 0.430738 0.483778
vt 0.887968 0.483778
vt 0.624543 0.483778
vt 0.325961 0.484406
vt 0.289749 0.484406
vt 0.325961 0.361206
vt 0.172784 0.361206
vt 0.739252 0.483778
vt 0.239051 0.422741
vt 0.325961 0.422741
vt 0.351660 0.483778
vt 0.967046 0.009310
vt 0.624543 0.498784
vt 0.739252 0.498784
vt 0.739252 0.973252
vt 0.624543 0.973252
vt 0.840522 0.498784
vt 0.840522 0.973252
vt 0.340535 0.805713
vt 0.270892 0.737127
vt 0.270892 0.641805
vt 0.340535 0.641805
vt 0.201620 0.685619
vt 0.201620 0.641805
vt 0.430738 0.973252
vt 0.351660 0.973252
vt 0.351660 0.498784
vt 0.430738 0.498784
vt 0.967046 0.973252
vt 0.887968 0.973252
vt 0.887968 0.498784
vt 0.967046 0.498784
vt 0.624543 0.736018
vt 0.430738 0.736018
vt 0.351660 0.736018
vt 0.967046 0.736018
vt 0.887968 0.736018
vt 0.840522 0.736018
vt 0.739252 0.736018
vt 0.624543 0.246544
vt 0.430738 0.246544
vt 0.351660 0.246544
vt 0.967046 0.246544
vt 0.887968 0.246544
vt 0.840522 0.246544
vt 0.739252 0.246544
vt 0.430738 0.854635
vt 0.624543 0.854635
vt 0.739252 0.854635
vt 0.840522 0.854635
vt 0.887968 0.854635
vt 0.351660 0.854635
vt 0.967046 0.854635
vt 0.624543 0.617401
vt 0.430738 0.617401
vt 0.351660 0.617401
vt 0.967046 0.617401
vt 0.887968 0.617401
vt 0.840522 0.617401
vt 0.739252 0.617401
vt 0.430738 0.365161
vt 0.624543 0.365161
vt 0.739252 0.365161
vt 0.840522 0.365161
vt 0.887968 0.365161
vt 0.351660 0.365161
vt 0.967046 0.365161
vt 0.624543 0.127927
vt 0.430738 0.127927
vt 0.351660 0.127927
vt 0.967046 0.127927
vt 0.887968 0.127927
vt 0.840522 0.127927
vt 0.739252 0.127927
vt 0.624543 0.068619
vt 0.430738 0.068619
vt 0.351660 0.068619
vt 0.967046 0.068619
vt 0.887968 0.068619
vt 0.840522 0.068619
vt 0.739252 0.068619
vt 0.430738 0.187236
vt 0.624543 0.187236
vt 0.739252 0.187236
vt 0.840522 0.187236
vt 0.887968 0.187236
vt 0.351660 0.187236
vt 0.967046 0.187236
vt 0.624543 0.305853
vt 0.430738 0.305853
vt 0.351660 0.305853
vt 0.967046 0.305853
vt 0.887968 0.305853
vt 0.840522 0.305853
vt 0.739252 0.305853
vt 0.430738 0.424470
vt 0.624543 0.424470
vt 0.739252 0.424470
vt 0.840522 0.424470
vt 0.887968 0.424470
vt 0.351660 0.424470
vt 0.967046 0.424470
vt 0.624543 0.558092
vt 0.430738 0.558092
vt 0.351660 0.558092
vt 0.967046 0.558092
vt 0.887968 0.558092
vt 0.840522 0.558092
vt 0.739252 0.558092
vt 0.430738 0.676709
vt 0.624543 0.676709
vt 0.739252 0.676709
vt 0.840522 0.676709
vt 0.887968 0.676709
vt 0.351660 0.676709
vt 0.967046 0.676709
vt 0.624543 0.795326
vt 0.430738 0.795326
vt 0.351660 0.795326
vt 0.967046 0.795326
vt 0.887968 0.795326
vt 0.840522 0.795326
vt 0.739252 0.795326
vt 0.430738 0.913943
vt 0.624543 0.913943
vt 0.739252 0.913943
vt 0.840522 0.913943
vt 0.887968 0.913943
vt 0.351660 0.913943
vt 0.967046 0.913943
vn 0.000000 0.000000 1.000000
vn 0.000000 0.000000 1.000000
vn 0.000000 0.000000 1.000000
vn 0.000000 0.000000 1.000000
vn 0.000000 0.000000 1.000000
vn 0.000000 0.000000 1.000000
vn -0.726505 0.687095 -0.009523
vn -0.725971 0.686460 -0.041700
vn -0.674146 0.737333 -0.043222
vn -0.676200 0.736631 -0.011349
vn -0.624415 0.779841 -0.044208
vn -0.626170 0.779578 -0.013004
vn 0.000000 -1.000000 0.000000
vn 0.000000 -1.000000 0.000000
vn 0.000000 -1.000000 0.000000
vn 0.000000 -1.000000 0.000000
vn 0.000000 -1.000000 0.000000
vn 0.000000 -1.000000 0.000000
vn -0.999684 0.000000 -0.025142
vn -0.999684 0.000000 -0.025142
vn -0.997357 0.000000 -0.072661
vn -0.997357 0.000000 -0.072661
vn 0.998849 0.000000 0.047972
vn 0.999949 0.000000 0.010069
vn 0.999949 0.000000 0.010069
vn 0.998849 0.000000 0.047972
vn -0.469531 0.690975 -0.549631
vn -0.439192 0.694540 -0.569845
vn -0.409633 0.744392 -0.527335
vn -0.441736 0.739051 -0.508599
vn -0.382180 0.784509 -0.488348
vn -0.413166 0.781757 -0.467065
vn 1.000000 0.000000 0.000000
vn 1.000000 0.000000 0.000000
vn 1.000000 0.000000 0.000000
vn 1.000000 0.000000 0.000000
vn 1.000000 0.000000 0.000000
vn 1.000000 0.000000 0.000000
vn 0.000000 -1.000000 0.000000
vn 0.000000 -1.000000 0.000000
vn -0.000000 -1.000000 0.000000
vn -0.000000 -1.000000 0.000000
vn -0.000000 -1.000000 0.000000
vn -0.000000 -1.000000 0.000000
vn -0.666509 -0.000636 -0.745497
vn -0.666509 -0.000636 -0.745497
vn -0.620955 -0.001662 -0.783844
vn -0.621758 -0.001644 -0.783208
vn 0.601138 0.000000 0.799145
vn 0.639233 0.000000 0.769014
vn 0.639233 0.000000 0.769014
vn 0.601138 0.000000 0.799145
vn 0.030690 0.000000 0.999529
vn 0.030690 0.000000 0.999529
vn 0.063157 0.000000 0.998004
vn 0.063157 0.000000 0.998004
vn 0.000000 -1.000000 0.000000
vn 0.000000 -1.000000 0.000000
vn 0.000000 -1.000000 0.000000
vn 0.000000 -1.000000 0.000000
vn 0.000000 -1.000000 0.000000
vn 0.000000 -1.000000 0.000000
vn -0.048209 0.000000 -0.998837
vn -0.022664 0.000000 -0.999743
vn -0.022664 0.000000 -0.999743
vn -0.048209 0.000000 -0.998837
vn -0.037343 0.739879 -0.671703
vn -0.017912 0.738751 -0.673741
vn -0.015305 0.781134 -0.624176
vn -0.032554 0.782219 -0.622152
vn -0.042405 0.690744 -0.721855
vn -0.020636 0.689584 -0.723912
vn 0.716927 0.000000 0.697148
vn 0.716927 0.000000 0.697148
vn 0.750739 0.000000 0.660599
vn 0.750739 0.000000 0.660599
vn 0.000000 -1.000000 0.000000
vn 0.000000 -1.000000 0.000000
vn 0.000000 -1.000000 -0.000000
vn 0.000000 -1.000000 -0.000000
vn 0.000000 -1.000000 -0.000000
vn 0.000000 -1.000000 -0.000000
vn -0.756487 0.000465 -0.654008
vn -0.721534 0.000249 -0.692379
vn -0.721534 0.000249 -0.692379
vn -0.756765 0.000467 -0.653687
vn -0.510763 0.736216 -0.443967
vn -0.483811 0.739018 -0.468805
vn -0.451710 0.778291 -0.436144
vn -0.474740 0.777747 -0.411985
vn -0.551211 0.683417 -0.478652
vn -0.521849 0.685555 -0.507629
vn 0.214278 0.000000 0.976773
vn 0.305414 0.000000 0.952220
vn 0.305414 0.000000 0.952220
vn 0.214278 0.000000 0.976773
vn -0.213173 0.700401 -0.681173
vn -0.147443 0.697145 -0.701605
vn -0.133122 0.746240 -0.652230
vn -0.195404 0.749420 -0.632604
vn -0.119594 0.788248 -0.603625
vn -0.178518 0.790763 -0.585513
vn -0.291664 -0.002265 -0.956518
vn -0.187286 0.000000 -0.982305
vn -0.187286 0.000000 -0.982305
vn -0.291664 -0.002265 -0.956518
vn 0.000000 -1.000000 0.000000
vn 0.000000 -1.000000 0.000000
vn 0.000000 -1.000000 0.000000
vn 0.000000 -1.000000 0.000000
vn 0.000000 -1.000000 0.000000
vn 0.000000 -1.000000 0.000000
vn 0.405687 0.000000 0.914012
vn 0.405687 0.000000 0.914012
vn 0.000000 -1.000000 0.000000
vn 0.000000 -1.000000 0.000000
vn 0.000000 -1.000000 0.000000
vn -0.407524 -0.005208 -0.913180
vn -0.409020 -0.005225 -0.912511
vn -0.266185 0.750558 -0.604821
vn -0.246465 0.790776 -0.560294
vn -0.287027 0.701820 -0.651969
vn 0.891151 0.000000 0.453707
vn 0.946637 0.000000 0.322302
vn 0.946637 0.000000 0.322302
vn 0.891151 0.000000 0.453707
vn -0.693394 0.675520 -0.250754
vn -0.654805 0.675730 -0.338554
vn -0.601382 0.732129 -0.319885
vn -0.636704 0.732232 -0.241754
vn -0.555332 0.775528 -0.300271
vn -0.585428 0.777144 -0.230914
vn -0.927692 0.000048 -0.373346
vn -0.877443 0.000281 -0.479681
vn -0.877446 0.000281 -0.479675
vn -0.927692 0.000048 -0.373346
vn 0.000000 -1.000000 0.000000
vn -0.000000 -1.000000 0.000000
vn -0.000000 -1.000000 0.000000
vn 0.000000 -1.000000 0.000000
vn 0.000000 -1.000000 0.000000
vn -0.000000 -1.000000 0.000000
vn 0.977005 0.000000 0.213219
vn 0.977005 0.000000 0.213219
vn 0.000000 -1.000000 0.000000
vn 0.000000 -1.000000 0.000000
vn 0.000000 -1.000000 0.000000
vn -0.964993 0.000000 -0.262277
vn -0.964993 0.000000 -0.262277
vn -0.657982 0.734024 -0.168131
vn -0.606623 0.778120 -0.162902
vn -0.713698 0.679123 -0.171545
vn 0.992543 0.000000 0.121896
vn 0.992543 0.000000 0.121896
vn 0.000000 -1.000000 0.000000
vn 0.000000 -1.000000 0.000000
vn 0.000000 -1.000000 0.000000
vn -0.985531 0.000000 -0.169493
vn -0.985531 0.000000 -0.169493
vn -0.669811 0.735338 -0.103108
vn -0.618585 0.778938 -0.102997
vn -0.723158 0.683079 -0.102206
vn 0.817232 0.000000 0.576308
vn 0.817232 0.000000 0.576308
vn 0.000000 -1.000000 -0.000000
vn 0.000000 -1.000000 -0.000000
vn 0.000000 -1.000000 -0.000000
vn -0.822679 0.000573 -0.568505
vn -0.822810 0.000573 -0.568316
vn -0.558157 0.732800 -0.389185
vn -0.518218 0.775775 -0.360033
vn -0.602633 0.678603 -0.419918
vn 0.509541 0.000000 0.860447
vn 0.509541 0.000000 0.860447
vn 0.000000 -1.000000 0.000000
vn 0.000000 -1.000000 0.000000
vn 0.000000 -1.000000 0.000000
vn -0.518742 -0.004311 -0.854920
vn -0.519904 -0.004277 -0.854214
vn -0.340567 0.748870 -0.568514
vn -0.316974 0.788351 -0.527286
vn -0.366590 0.699969 -0.612907
vn 0.133813 0.000000 0.991007
vn 0.133813 0.000000 0.991007
vn 0.000000 -1.000000 0.000000
vn 0.000000 -1.000000 0.000000
vn 0.000000 -1.000000 0.000000
vn -0.108534 0.000000 -0.994093
vn -0.108534 0.000000 -0.994093
vn -0.080901 0.742603 -0.664827
vn -0.071512 0.784885 -0.615502
vn -0.090845 0.693501 -0.714705
s 1
g InsideBend
usemtl initialShadingGroup
f 1/14/1 4/15/2 5/17/3 2/18/4
f 2/18/4 5/17/3 6/13/5 3/12/6
s 2
f 4/4/7 55/83/8 60/89/9 5/3/10
f 5/3/10 60/89/9 59/88/11 6/6/12
s 3
f 56/84/13 1/1/14 2/2/15 57/85/16
f 57/86/16 2/20/15 3/5/17 58/87/18
s 4
f 3/5/19 6/6/20 59/88/21 58/87/22
s 5
f 55/83/23 4/4/24 1/1/25 56/84/26
s 6
f 7/21/27 79/111/28 84/117/29 8/22/30
f 8/22/30 84/117/29 83/116/31 9/25/32
s 7
f 13/27/33 16/30/34 17/29/35 14/28/36
f 14/28/36 17/29/35 18/32/37 15/31/38
s 8
f 80/112/39 10/36/40 11/35/41 81/113/42
f 81/114/42 11/40/41 12/39/43 82/115/44
s 9
f 12/39/45 9/25/46 83/116/47 82/115/48
s 10
f 79/111/49 7/21/50 10/36/51 80/112/52
f 16/33/53 13/24/54 98/133/55 97/132/56
s 8
f 16/33/57 97/132/58 102/137/59 17/34/60
f 17/37/60 102/138/59 101/136/61 18/38/62
s 9
f 100/135/63 15/26/64 18/38/65 101/136/66
s 6
f 99/134/67 14/23/68 15/26/69 100/135/70
f 98/133/71 13/24/72 14/23/68 99/134/67
s 5
f 10/9/73 7/11/74 74/105/75 73/104/76
s 3
f 10/9/77 73/104/78 78/109/79 11/19/80
f 11/8/80 78/110/79 77/108/81 12/10/82
s 4
f 76/107/83 9/7/84 12/10/85 77/108/86
s 2
f 75/106/87 8/16/88 9/7/89 76/107/90
f 74/105/91 7/11/92 8/16/88 75/106/87
s 10
f 91/125/93 19/41/94 20/42/95 92/126/96
s 6
f 19/41/97 91/125/98 96/131/99 24/47/100
f 24/47/100 96/131/99 95/130/101 23/46/102
s 9
f 23/46/103 95/130/104 94/129/105 22/45/106
s 8
f 93/128/107 21/44/108 22/45/109 94/129/110
f 92/126/111 20/42/112 21/43/108 93/127/107
s 10
f 19/41/94 86/119/113 85/118/114 20/42/95
s 8
f 20/42/112 85/118/115 90/123/116 21/43/108
f 21/44/108 90/124/116 89/122/117 22/45/109
s 9
f 88/121/118 23/46/103 22/45/106 89/122/119
s 6
f 87/120/120 24/47/100 23/46/102 88/121/121
f 86/119/122 19/41/97 24/47/100 87/120/120
s 5
f 67/97/123 25/48/124 26/49/125 68/98/126
s 2
f 25/48/127 67/97/128 72/103/129 30/54/130
f 30/54/130 72/103/129 71/102/131 29/53/132
s 4
f 29/53/133 71/102/134 70/101/135 28/52/136
s 3
f 69/100/137 27/51/138 28/52/139 70/101/140
f 68/98/141 26/49/142 27/50/138 69/99/137
s 5
f 25/48/124 62/91/143 61/90/144 26/49/125
s 3
f 26/49/142 61/90/145 66/95/146 27/50/138
f 27/51/138 66/96/146 65/94/147 28/52/139
s 4
f 64/93/148 29/53/133 28/52/136 65/94/149
s 2
f 63/92/150 30/54/130 29/53/132 64/93/151
f 62/91/152 25/48/127 30/54/130 63/92/150
s 5
f 49/76/153 55/83/23 56/84/26 50/77/154
s 3
f 50/77/155 56/84/13 57/85/16 51/78/156
f 51/79/156 57/86/16 58/87/18 52/80/157
s 4
f 59/88/21 53/81/158 52/80/159 58/87/22
s 2
f 60/89/9 54/82/160 53/81/161 59/88/11
f 55/83/8 49/76/162 54/82/160 60/89/9
s 5
f 62/91/143 49/76/153 50/77/154 61/90/144
s 2
f 49/76/162 62/91/152 63/92/150 54/82/160
f 54/82/160 63/92/150 64/93/151 53/81/161
s 4
f 53/81/158 64/93/148 65/94/149 52/80/159
s 3
f 66/96/146 51/79/156 52/80/157 65/94/147
f 61/90/145 50/77/155 51/78/156 66/95/146
s 5
f 44/70/163 67/97/123 68/98/126 43/69/164
s 3
f 43/69/165 68/98/141 69/99/137 48/74/166
f 48/75/166 69/100/137 70/101/140 47/73/167
s 4
f 71/102/134 46/72/168 47/73/169 70/101/135
s 2
f 72/103/129 45/71/170 46/72/171 71/102/131
f 67/97/128 44/70/172 45/71/170 72/103/129
s 5
f 74/105/75 44/70/163 43/69/164 73/104/76
s 2
f 44/70/172 74/105/91 75/106/87 45/71/170
f 45/71/170 75/106/87 76/107/90 46/72/171
s 4
f 46/72/168 76/107/83 77/108/86 47/73/169
s 3
f 78/110/79 48/75/166 47/73/167 77/108/81
f 73/104/78 43/69/165 48/74/166 78/109/79
s 10
f 37/62/173 79/111/49 80/112/52 38/63/174
s 8
f 38/63/175 80/112/39 81/113/42 39/64/176
f 39/65/176 81/114/42 82/115/44 40/66/177
s 9
f 83/116/47 41/67/178 40/66/179 82/115/48
s 6
f 84/117/29 42/68/180 41/67/181 83/116/31
f 79/111/28 37/62/182 42/68/180 84/117/29
s 10
f 86/119/113 37/62/173 38/63/174 85/118/114
s 6
f 37/62/182 86/119/122 87/120/120 42/68/180
f 42/68/180 87/120/120 88/121/121 41/67/181
s 9
f 41/67/178 88/121/118 89/122/119 40/66/179
s 8
f 90/124/116 39/65/176 40/66/177 89/122/117
f 85/118/115 38/63/175 39/64/176 90/123/116
s 10
f 32/56/183 91/125/93 92/126/96 31/55/184
s 8
f 31/55/185 92/126/111 93/127/107 36/60/186
f 36/61/186 93/128/107 94/129/110 35/59/187
s 9
f 95/130/104 34/58/188 35/59/189 94/129/105
s 6
f 96/131/99 33/57/190 34/58/191 95/130/101
f 91/125/98 32/56/192 33/57/190 96/131/99
s 10
f 98/133/55 32/56/183 31/55/184 97/132/56
s 6
f 32/56/192 98/133/71 99/134/67 33/57/190
f 33/57/190 99/134/67 100/135/70 34/58/191
s 9
f 34/58/188 100/135/63 101/136/66 35/59/189
s 8
f 102/138/59 36/61/186 35/59/187 101/136/61
f 97/132/58 31/55/185 36/60/186 102/137/59
