# This file uses centimeters as units for non-parametric coordinates.

mtllib OutsideCorner_lp.mtl
g default
v -1.000000 0.000000 0.000000
v -0.500000 0.000000 0.000000
v 0.000000 0.000000 0.000000
v -1.000000 1.225404 0.000000
v -0.500000 0.700000 0.000000
v 0.000000 0.300000 0.000000
v -0.999781 1.225404 -3.999331
v -0.499781 0.700000 -3.499331
v 0.000219 0.300000 -2.999331
v -0.999781 -0.000000 -3.999331
v -0.499781 -0.000000 -3.499331
v 0.000219 0.000000 -2.999331
v 3.000438 1.225404 -3.998662
v 3.000438 0.700000 -3.498662
v 3.000438 0.300000 -2.998662
v 3.000438 0.000000 -3.998662
v 3.000438 0.000000 -3.498662
v 3.000438 0.000000 -2.998662
vt 0.306686 0.016870
vt 0.228556 0.016870
vt 0.800577 0.035734
vt 0.498166 0.016870
vt 0.884154 0.016870
vt 0.837276 0.016870
vt 0.837276 0.485648
vt 0.962284 0.485648
vt 0.306686 0.485648
vt 0.884154 0.485648
vt 0.498166 0.485648
vt 0.203166 0.486268
vt 0.167387 0.486268
vt 0.203166 0.364545
vt 0.051826 0.364545
vt 0.702429 0.035872
vt 0.117298 0.425342
vt 0.203166 0.425342
vt 0.228556 0.485648
vt 0.962284 0.016870
vt 0.515064 0.997669
vt 0.614467 0.934965
vt 0.615131 0.493455
vt 0.515804 0.493090
vt 0.837276 0.515590
vt 0.837276 0.984368
vt 0.217564 0.818838
vt 0.148756 0.751075
vt 0.148756 0.656896
vt 0.217564 0.656896
vt 0.080315 0.700184
vt 0.080315 0.656896
vt 0.306686 0.984368
vt 0.228556 0.984368
vt 0.228556 0.515590
vt 0.306686 0.515590
vt 0.962284 0.984368
vt 0.884154 0.984368
vt 0.884154 0.515590
vt 0.962284 0.515590
vt 0.703164 0.478697
vt 0.801423 0.541831
vt 0.604281 0.036010
vt 0.604905 0.415562
vt 0.713869 0.872262
vt 0.714458 0.493820
vt 0.498166 0.515590
vt 0.498166 0.984368
vn 0.000000 0.000000 1.000000
vn 0.000000 0.000000 1.000000
vn 0.000000 0.000000 1.000000
vn 0.000000 0.000000 1.000000
vn 0.000000 0.000000 1.000000
vn 0.000000 0.000000 1.000000
vn 0.724393 0.689387 0.000042
vn 0.682710 0.730689 0.000042
vn 0.701431 0.712738 0.000042
vn 0.724393 0.689387 0.000042
vn 0.624682 0.780879 0.000042
vn 0.624682 0.780879 0.000042
vn -0.000000 -1.000000 0.000000
vn -0.000000 -1.000000 0.000000
vn 0.000000 -1.000000 0.000000
vn -0.000000 -1.000000 0.000000
vn 0.000000 -1.000000 0.000000
vn 0.000000 -1.000000 0.000000
vn 1.000000 0.000000 0.000073
vn 1.000000 0.000000 0.000073
vn 1.000000 0.000000 0.000073
vn 1.000000 0.000000 0.000073
vn -1.000000 0.000000 -0.000055
vn -1.000000 0.000000 -0.000055
vn -1.000000 0.000000 -0.000055
vn -1.000000 0.000000 -0.000055
vn -0.000129 0.689344 0.724434
vn -0.000129 0.712690 0.701479
vn -0.000129 0.730652 0.682750
vn -0.000129 0.689344 0.724434
vn -0.000129 0.780838 0.624734
vn -0.000129 0.780838 0.624734
vn 1.000000 0.000000 0.000000
vn 1.000000 0.000000 0.000000
vn 1.000000 0.000000 0.000000
vn 1.000000 0.000000 0.000000
vn 1.000000 0.000000 0.000000
vn 1.000000 0.000000 0.000000
vn 0.000000 -1.000000 -0.000000
vn 0.000000 -1.000000 0.000000
vn 0.000000 -1.000000 -0.000000
vn 0.000000 -1.000000 -0.000000
vn 0.000000 -1.000000 0.000000
vn 0.000000 -1.000000 0.000000
vn -0.000223 0.000000 1.000000
vn -0.000223 0.000000 1.000000
vn -0.000223 0.000000 1.000000
vn -0.000223 0.000000 1.000000
vn 0.000167 0.000000 -1.000000
vn 0.000167 0.000000 -1.000000
vn 0.000167 0.000000 -1.000000
vn 0.000167 0.000000 -1.000000
s 1
g OutsideCorner
usemtl initialShadingGroup
f 1/14/1 2/18/2 5/17/3 4/15/4
f 2/18/2 3/12/5 6/13/6 5/17/3
s 2
f 4/3/7 5/16/8 8/41/9 7/42/10
f 5/16/8 6/43/11 9/44/12 8/41/9
s 3
f 10/9/13 11/19/14 2/2/15 1/1/16
f 11/8/14 12/10/17 3/5/18 2/20/15
s off
f 3/5/19 12/10/20 9/7/21 6/6/22
f 10/9/23 1/1/24 4/4/25 7/11/26
s 4
f 7/21/27 8/22/28 14/23/29 13/24/30
f 8/22/28 9/45/31 15/46/32 14/23/29
s 5
f 13/27/33 14/28/34 17/29/35 16/30/36
f 14/28/34 15/31/37 18/32/38 17/29/35
s 6
f 16/33/39 17/34/40 11/35/41 10/36/42
f 17/37/40 18/38/43 12/39/44 11/40/41
s off
f 12/39/45 18/38/46 15/26/47 9/25/48
f 16/33/49 10/36/50 7/47/51 13/48/52
