# This file uses centimeters as units for non-parametric coordinates.

mtllib OutsideCorner_HP.mtl
g default
v -0.994659 0.005340 -0.018237
v -0.981768 -0.000000 -0.018231
v -0.981778 0.005340 -0.005340
v -0.981769 0.018231 0.000000
v -0.994660 0.018231 -0.005340
v -0.999999 0.018231 -0.018231
v -0.499999 -0.000000 -0.018231
v -0.487108 -0.000000 -0.018231
v -0.487110 0.005340 -0.005340
v -0.487109 0.018231 0.000000
v -0.500000 0.018231 0.000000
v -0.512891 0.018231 0.000000
v -0.512893 0.005340 -0.005340
v -0.512890 -0.000000 -0.018231
v -0.005338 0.005340 -0.018224
v 0.000001 0.018231 -0.018231
v -0.005339 0.018231 -0.005340
v -0.018230 0.018230 0.000000
v -0.018240 0.005340 -0.005340
v -0.018229 0.000000 -0.018231
v -0.992244 1.206005 -0.016175
v -0.999999 1.194552 -0.016197
v -0.993888 1.188458 -0.004744
v -0.979284 1.173585 0.000000
v -0.978968 1.194428 -0.004743
v -0.978730 1.203055 -0.016196
v -0.499785 0.700399 -0.018314
v -0.509057 0.709519 -0.018540
v -0.510724 0.703109 -0.005373
v -0.512516 0.687476 0.000000
v -0.501768 0.677622 0.000000
v -0.486940 0.665900 0.000000
v -0.488548 0.684349 -0.005279
v -0.489940 0.691953 -0.018176
v -0.003012 0.298552 -0.018712
v -0.011457 0.309166 -0.018703
v -0.014495 0.304203 -0.005312
v -0.017483 0.291597 0.000000
v -0.005775 0.286050 -0.005311
v 0.000001 0.285327 -0.018703
v -0.973161 1.204607 -3.990908
v -0.981776 1.191105 -3.999328
v -0.994508 1.191319 -3.994123
v -0.999782 1.191540 -3.981551
v -0.991364 1.204759 -3.972831
v -0.975617 1.200012 -3.956763
v -0.970221 1.200004 -3.969768
v -0.957208 1.200007 -3.975158
v -0.481254 0.700300 -3.499012
v -0.490494 0.709322 -3.508199
v -0.503307 0.709302 -3.502894
v -0.508616 0.709283 -3.490084
v -0.499480 0.700311 -3.480869
v -0.489652 0.691896 -3.470895
v -0.484288 0.691895 -3.483836
v -0.471340 0.691894 -3.489195
v 0.015302 0.298784 -3.002436
v 0.007332 0.309107 -3.010710
v -0.005879 0.309182 -3.005262
v -0.011352 0.309256 -2.992102
v -0.002972 0.298880 -2.984181
v 0.000218 0.285942 -2.981410
v 0.005468 0.285943 -2.994081
v 0.018140 0.285942 -2.999327
v -0.976210 0.005231 -3.993948
v -0.962634 -0.000000 -3.980754
v -0.975529 -0.000000 -3.975119
v -0.980873 -0.000000 -3.961513
v -0.994332 0.005229 -3.975535
v -0.999782 0.017864 -3.981467
v -0.994549 0.017863 -3.994097
v -0.981917 0.017864 -3.999328
v -0.481548 -0.000000 -3.499327
v -0.468654 -0.000000 -3.486434
v -0.481550 -0.000000 -3.481098
v -0.486893 -0.000000 -3.468211
v -0.499783 -0.000000 -3.481101
v -0.512673 -0.000000 -3.493991
v -0.507333 -0.000000 -3.506883
v -0.494441 -0.000000 -3.512221
v 0.013015 0.005286 -3.004750
v 0.018267 0.018048 -2.999327
v 0.005505 0.017955 -2.994097
v 0.000218 0.017864 -2.981467
v -0.005220 0.005231 -2.986653
v -0.018189 0.000000 -2.999331
v -0.012797 0.000000 -3.012348
v 0.000219 0.000000 -3.017738
v 2.995413 1.187242 -3.992400
v 2.983226 1.192615 -3.998664
v 2.983755 1.205267 -3.990897
v 2.984241 1.203055 -3.977395
v 2.995694 1.194428 -3.977631
v 3.000438 1.173586 -3.977946
v 3.000438 0.677634 -3.500467
v 3.000438 0.687457 -3.511195
v 2.995114 0.703050 -3.509354
v 2.982051 0.709439 -3.507648
v 2.982147 0.700361 -3.498410
v 2.982261 0.691953 -3.488606
v 2.995159 0.684348 -3.487211
v 3.000438 0.665898 -3.485601
v 2.995206 0.286154 -3.004448
v 3.000438 0.291596 -3.016146
v 2.995205 0.304132 -3.013084
v 2.981970 0.309051 -3.009979
v 2.981965 0.298570 -3.001641
v 2.981969 0.285512 -2.998666
v 2.982204 0.005340 -3.993325
v 2.982207 0.018231 -3.998665
v 2.995099 0.018230 -3.993323
v 3.000438 0.018229 -3.980432
v 2.995099 0.005339 -3.980441
v 2.982207 -0.000000 -3.980434
v 2.982207 -0.000000 -3.498665
v 2.982207 -0.000000 -3.511556
v 2.995099 0.005340 -3.511556
v 3.000438 0.018231 -3.511553
v 3.000438 0.018231 -3.498662
v 3.000438 0.018231 -3.485770
v 2.995099 0.005340 -3.485772
v 2.982207 -0.000000 -3.485774
v 2.982211 0.005340 -3.004005
v 2.982207 0.000000 -3.016896
v 2.995099 0.005340 -3.016904
v 3.000438 0.018231 -3.016892
v 2.995098 0.018231 -3.004003
v 2.982207 0.018231 -2.998666
v -0.992294 0.007709 -0.007711
v -0.499995 0.005340 -0.005340
v -0.007706 0.007709 -0.007708
v -0.990020 1.200435 -0.006822
v -0.501103 0.694164 -0.005346
v -0.006304 0.296971 -0.007732
v -0.986025 1.204664 -3.985607
v -0.494122 0.700291 -3.493688
v 0.002396 0.298804 -2.997074
v -0.988999 0.005231 -3.988549
v -0.494441 -0.000000 -3.493990
v 0.000131 0.005259 -2.999445
v 2.993412 1.199822 -3.988593
v 2.995113 0.694148 -3.499768
v 2.992817 0.296982 -3.004945
v 2.992728 0.007709 -3.990958
v 2.995099 0.005340 -3.498658
v 2.992729 0.007709 -3.006370
vt 0.303837 0.019312
vt 0.200929 0.366762
vt 0.230570 0.019312
vt 0.960269 0.019719
vt 0.200956 0.426913
vt 0.887003 0.019719
vt 0.881305 0.019719
vt 0.058250 0.367064
vt 0.118830 0.423820
vt 0.121508 0.426934
vt 0.168382 0.484137
vt 0.839569 0.019793
vt 0.309477 0.483554
vt 0.492807 0.517700
vt 0.796671 0.536451
vt 0.704896 0.477524
vt 0.701169 0.475101
vt 0.607175 0.414644
vt 0.839473 0.482847
vt 0.881363 0.482856
vt 0.309477 0.517683
vt 0.230571 0.483510
vt 0.303783 0.517766
vt 0.230571 0.517727
vt 0.887030 0.483183
vt 0.960269 0.518032
vt 0.887031 0.518055
vt 0.309534 0.982231
vt 0.520026 0.495148
vt 0.613343 0.495768
vt 0.617126 0.495755
vt 0.712207 0.496142
vt 0.839540 0.981482
vt 0.881305 0.981519
vt 0.230570 0.981926
vt 0.215056 0.659348
vt 0.150530 0.659349
vt 0.887003 0.981519
vt 0.146992 0.659424
vt 0.082811 0.659526
vt 0.200929 0.423775
vt 0.200992 0.484046
vt 0.796405 0.037789
vt 0.704211 0.038216
vt 0.700458 0.038175
vt 0.606534 0.038374
vt 0.303731 0.483432
vt 0.960270 0.483205
vt 0.309534 0.019007
vt 0.493345 0.018768
vt 0.492875 0.483564
vt 0.519872 0.992318
vt 0.612707 0.933788
vt 0.616485 0.931385
vt 0.711609 0.871356
vt 0.214714 0.812059
vt 0.150481 0.749375
vt 0.146969 0.746563
vt 0.082709 0.698951
vt 0.303837 0.981926
vt 0.960269 0.981519
vt 0.881334 0.518410
vt 0.839473 0.518390
vt 0.493043 0.982351
vt 0.306694 0.019158
vt 0.203166 0.365907
vt 0.304936 0.016870
vt 0.308456 0.016870
vt 0.201766 0.364545
vt 0.962284 0.018743
vt 0.228556 0.018743
vt 0.203166 0.426935
vt 0.960241 0.016870
vt 0.200951 0.425344
vt 0.230601 0.016870
vt 0.203166 0.423751
vt 0.884155 0.019714
vt 0.201804 0.486268
vt 0.882370 0.016870
vt 0.885907 0.016870
vt 0.203166 0.484901
vt 0.498166 0.018178
vt 0.800579 0.037146
vt 0.053443 0.364545
vt 0.496121 0.016870
vt 0.798801 0.035736
vt 0.053011 0.365645
vt 0.702334 0.038188
vt 0.116077 0.424209
vt 0.704259 0.035869
vt 0.120040 0.425130
vt 0.699965 0.035875
vt 0.118556 0.426872
vt 0.604283 0.037478
vt 0.837276 0.018683
vt 0.166504 0.485193
vt 0.606011 0.036008
vt 0.839086 0.016870
vt 0.168768 0.486268
vt 0.498166 0.517228
vt 0.515067 0.995906
vt 0.495315 0.485648
vt 0.495315 0.515590
vt 0.801421 0.540071
vt 0.498166 0.484017
vt 0.517702 0.996006
vt 0.798816 0.540156
vt 0.614599 0.932626
vt 0.704969 0.479856
vt 0.612641 0.936117
vt 0.703046 0.476363
vt 0.616464 0.933706
vt 0.701190 0.477428
vt 0.713872 0.870494
vt 0.837276 0.517779
vt 0.606798 0.416779
vt 0.711954 0.873470
vt 0.837276 0.483459
vt 0.604902 0.413790
vt 0.839421 0.515590
vt 0.839421 0.485648
vt 0.306694 0.517282
vt 0.304484 0.485648
vt 0.304484 0.515590
vt 0.306678 0.483939
vt 0.309046 0.515590
vt 0.309046 0.485648
vt 0.962284 0.517463
vt 0.228556 0.517463
vt 0.960249 0.485648
vt 0.960249 0.515590
vt 0.228556 0.483774
vt 0.962284 0.483774
vt 0.230591 0.515590
vt 0.230591 0.485648
vt 0.884165 0.518809
vt 0.881815 0.485648
vt 0.881815 0.515590
vt 0.884178 0.482454
vt 0.886275 0.515590
vt 0.886275 0.485648
vt 0.496033 0.984368
vt 0.217564 0.817034
vt 0.515802 0.494525
vt 0.498166 0.983035
vt 0.216350 0.817642
vt 0.517557 0.493096
vt 0.149007 0.748104
vt 0.613286 0.493448
vt 0.150035 0.752334
vt 0.615239 0.495761
vt 0.147039 0.749798
vt 0.617623 0.493464
vt 0.080315 0.698527
vt 0.839070 0.984368
vt 0.712722 0.493814
vt 0.081511 0.701073
vt 0.837276 0.982573
vt 0.714455 0.495269
vt 0.306690 0.982081
vt 0.217564 0.658394
vt 0.308457 0.984368
vt 0.304936 0.984368
vt 0.216023 0.656896
vt 0.228556 0.982494
vt 0.962284 0.982494
vt 0.150557 0.656896
vt 0.230601 0.984368
vt 0.148761 0.659376
vt 0.960241 0.984368
vt 0.146967 0.656896
vt 0.884159 0.981522
vt 0.081851 0.656896
vt 0.885907 0.984368
vt 0.882370 0.984368
vt 0.080315 0.658544
vt 0.306686 0.016870
vt 0.203166 0.364545
vt 0.203166 0.425342
vt 0.228556 0.016870
vt 0.962284 0.016870
vt 0.884154 0.016870
vt 0.203166 0.486268
vt 0.498166 0.016870
vt 0.051826 0.364545
vt 0.800577 0.035734
vt 0.117298 0.425342
vt 0.702429 0.035872
vt 0.604281 0.036010
vt 0.167387 0.486268
vt 0.837276 0.016870
vt 0.498166 0.485648
vt 0.801423 0.541831
vt 0.515064 0.997669
vt 0.498166 0.515590
vt 0.703164 0.478697
vt 0.614467 0.934965
vt 0.604905 0.415562
vt 0.837276 0.485648
vt 0.837276 0.515590
vt 0.713869 0.872262
vt 0.306686 0.485648
vt 0.306686 0.515590
vt 0.962284 0.485648
vt 0.228556 0.485648
vt 0.228556 0.515590
vt 0.962284 0.515590
vt 0.884154 0.485648
vt 0.884154 0.515590
vt 0.498166 0.984368
vt 0.515804 0.493090
vt 0.217564 0.818838
vt 0.615131 0.493455
vt 0.148756 0.751075
vt 0.080315 0.700184
vt 0.714458 0.493820
vt 0.837276 0.984368
vt 0.306686 0.984368
vt 0.217564 0.656896
vt 0.148756 0.656896
vt 0.962284 0.984368
vt 0.228556 0.984368
vt 0.884154 0.984368
vt 0.080315 0.656896
vn -0.011645 -0.999931 0.001418
vn -0.372183 -0.928159 0.000773
vn -0.371063 -0.928607 -0.001258
vn -0.032487 -0.999472 -0.000025
vn -0.921141 -0.389229 0.000796
vn -0.999989 -0.004527 0.001374
vn -0.999993 -0.003385 -0.001380
vn -0.920951 -0.389677 -0.000862
vn -0.013184 -0.005672 0.999897
vn -0.006899 -0.381903 0.924177
vn -0.000000 -0.382683 0.923880
vn -0.000000 -0.005828 0.999983
vn -0.006900 -0.924177 0.381901
vn -0.000000 -0.999999 0.001438
vn -0.000000 -0.923879 0.382684
vn -0.905232 -0.003066 0.424906
vn -0.904522 0.002176 0.426421
vn -1.000000 0.000014 0.001004
vn -0.344201 -0.002441 0.938893
vn -0.020539 0.014417 0.999685
vn -0.335796 0.007700 0.941903
vn 0.000000 -0.999999 0.001651
vn 0.000000 -0.999999 0.001536
vn 0.000000 -1.000000 0.000000
vn 0.000000 -1.000000 0.000000
vn -0.000000 -1.000000 0.000000
vn -0.000000 -0.011118 0.999938
vn -0.000000 -0.382691 0.923876
vn 0.006884 -0.381915 0.924172
vn 0.006564 -0.011275 0.999915
vn -0.000000 -0.923880 0.382682
vn 0.010162 -0.999947 0.001642
vn 0.006882 -0.924175 0.381907
vn -0.000000 -0.007987 0.999968
vn 0.006234 0.007674 0.999951
vn 0.002325 0.002233 0.999995
vn 0.019964 0.024970 0.999489
vn 0.999813 -0.019225 0.001913
vn 0.921296 -0.388860 0.001199
vn 0.920873 -0.389855 0.002431
vn 0.999724 -0.023415 0.001812
vn 0.378264 -0.925697 0.001132
vn 0.003686 -0.999993 0.000015
vn 0.378067 -0.925778 0.000379
vn 0.395359 -0.012520 0.918442
vn 0.399515 0.005322 0.916711
vn 0.008285 0.005960 0.999948
vn 0.921603 -0.010594 0.387989
vn 0.999937 0.011021 0.001965
vn 0.921541 0.007501 0.388209
vn -0.836261 0.548332 -0.000411
vn -0.836261 0.548332 -0.000411
vn -0.836049 0.548654 -0.001173
vn -0.835668 0.549229 -0.002538
vn 0.254600 0.967046 -0.000396
vn 0.254600 0.967046 -0.000396
vn 0.703458 0.710734 0.001948
vn 0.254044 0.967192 0.000601
vn 0.724375 0.689405 0.001225
vn 0.651060 0.624256 0.431770
vn 0.653754 0.623019 0.429481
vn 0.723987 0.689811 0.001848
vn 0.236559 0.243486 0.940614
vn 0.256338 0.244914 0.935045
vn 0.675938 0.736956 0.001729
vn 0.685852 0.727741 0.001084
vn 0.723922 0.689881 0.000657
vn 0.625266 0.780410 0.001314
vn 0.624792 0.780788 0.002132
vn 0.578147 0.721438 0.381148
vn 0.580471 0.719820 0.380673
vn 0.628066 0.778158 0.001758
vn 0.241323 0.302340 0.922146
vn 0.245329 0.302763 0.920950
vn 0.898493 0.438985 0.001428
vn 0.876247 0.481860 0.001443
vn 0.625922 0.779885 0.000635
vn 0.999921 0.012432 0.001830
vn -0.001996 0.527211 -0.849732
vn -0.000790 0.526631 -0.850094
vn -0.000072 0.526285 -0.850309
vn -0.000072 0.526285 -0.850308
vn 0.000642 0.973963 0.226704
vn 0.001781 0.711462 0.702723
vn -0.000393 0.973892 0.227013
vn -0.000393 0.973892 0.227013
vn -0.999999 -0.000000 -0.001360
vn -0.923006 -0.000002 -0.384786
vn -0.923007 -0.005430 -0.384745
vn -0.380494 0.000019 -0.924784
vn -0.001157 0.000000 -0.999999
vn -0.001150 -0.003404 -0.999994
vn -0.380537 -0.005306 -0.924751
vn 0.411483 0.812908 0.412144
vn 0.421101 0.802873 0.421982
vn 0.000483 0.689839 0.723963
vn 0.000908 0.727803 0.685785
vn 0.001549 0.736878 0.676024
vn 0.001678 0.689769 0.724028
vn 0.001993 0.780768 0.624818
vn 0.001143 0.780371 0.625315
vn 0.349941 0.870004 0.347325
vn 0.350913 0.869049 0.348732
vn 0.000470 0.779857 0.625957
vn 0.001201 0.480883 0.876784
vn 0.001162 0.437211 0.899358
vn 0.001583 0.778121 0.628112
vn 0.001525 0.012247 0.999924
vn 0.001668 0.010822 0.999940
vn 0.380892 0.015318 0.924493
vn 0.380731 -0.028283 0.924253
vn 0.001518 -0.023377 0.999726
vn 0.923067 0.015396 0.384330
vn 0.922798 -0.027875 0.384276
vn -0.000018 -0.999473 -0.032456
vn -0.001186 -0.927266 -0.374401
vn 0.000882 -0.926813 -0.375524
vn 0.001420 -0.999931 -0.011646
vn -0.000671 -0.387505 -0.921867
vn 0.001616 -0.004504 -0.999989
vn 0.001009 -0.387060 -0.922054
vn -0.009009 -0.999922 -0.008641
vn -0.000000 -1.000000 -0.000000
vn 0.000000 -1.000000 -0.000000
vn 0.000000 -1.000000 0.000000
vn 0.000000 -1.000000 0.000000
vn 0.001536 -0.999999 0.000000
vn 0.001650 -0.999999 0.000000
vn 0.001437 -0.999999 -0.000000
vn 0.000000 -1.000000 0.000000
vn 0.003353 -0.999989 0.003346
vn 0.000014 -0.999993 0.003690
vn 0.002163 -0.387716 0.921777
vn 0.000908 -0.386722 0.922196
vn 0.001616 -0.019180 0.999815
vn 0.000260 -0.925168 0.379558
vn 0.001639 -0.999947 0.010218
vn 0.001011 -0.925088 0.379751
vn 0.001298 0.000015 -0.999999
vn 0.420763 0.002665 -0.907167
vn 0.419411 -0.002699 -0.907792
vn 0.937799 0.007372 -0.347099
vn 0.999676 0.014402 -0.021007
vn 0.999892 -0.005668 -0.013543
vn 0.935169 -0.002295 -0.354194
vn 0.941551 0.242523 0.233805
vn 0.935633 0.243853 0.255199
vn 0.999995 0.002227 0.002320
vn 0.433754 0.623973 0.650011
vn 0.001054 0.689365 0.724413
vn 0.431361 0.622402 0.653103
vn 0.999951 0.007654 0.006229
vn 0.999968 -0.007984 0.000000
vn 0.999983 -0.005828 0.000000
vn 0.999496 0.024787 0.019812
vn 0.999938 -0.011118 0.000000
vn 0.923082 0.300607 0.239906
vn 0.921974 0.300919 0.243744
vn 0.999948 0.005940 0.008257
vn 0.383242 0.720818 0.577535
vn 0.382848 0.719229 0.579774
vn 0.917769 0.005117 0.397081
vn 0.919407 -0.012660 0.393104
vn 0.999915 -0.011277 0.006518
vn 0.390388 0.007113 0.920623
vn 0.389958 -0.010848 0.920769
vn 0.381884 -0.924185 -0.006897
vn 0.382665 -0.923887 0.000000
vn 0.924167 -0.381926 -0.006897
vn 0.923871 -0.382705 0.000001
vn 0.382680 -0.923881 0.000000
vn 0.381903 -0.924177 0.006886
vn 0.923880 -0.382683 0.000000
vn 0.924175 -0.381908 0.006885
vn -0.887990 -0.325274 0.325071
vn -0.325459 -0.887928 0.325055
vn -0.325439 -0.325204 0.887880
vn 0.000002 -0.923879 0.382686
vn 0.000000 -0.382686 0.923879
vn 0.325038 -0.887933 0.325463
vn 0.887971 -0.325090 0.325305
vn 0.325094 -0.325345 0.887955
vn 0.251204 0.810523 0.529103
vn 0.251204 0.810523 0.529103
vn -0.740906 0.413951 0.528870
vn -0.740906 0.413951 0.528870
vn -0.085328 0.213172 0.973281
vn 0.602824 0.697319 0.387750
vn 0.249291 0.287495 0.924771
vn 0.840942 0.404112 0.359875
vn 0.476846 0.229105 0.848604
vn 0.146807 0.978930 0.141927
vn -0.287482 0.635249 -0.716807
vn -0.287482 0.635249 -0.716807
vn -0.703125 0.643561 -0.302399
vn -0.703125 0.643561 -0.302399
vn 0.387034 0.836224 0.388502
vn 0.317595 0.563705 0.762477
vn 0.764270 0.562816 0.314849
vn -0.334986 -0.495791 -0.801234
vn -0.190401 -0.964237 -0.184377
vn -0.801346 -0.498828 -0.330174
vn 0.000000 -1.000000 0.000000
vn 0.195654 -0.960943 0.195727
vn 0.334795 -0.482255 0.809532
vn 0.807815 -0.484451 0.335770
vn 0.970047 0.210635 -0.121006
vn 0.496125 0.385741 -0.777859
vn 0.496125 0.385741 -0.777858
vn 0.530459 0.824650 0.196384
vn 0.530459 0.824650 0.196384
vn 0.925313 0.286211 0.248755
vn 0.388574 0.696508 0.603230
vn 0.364819 0.403265 0.839217
vn 0.852497 0.226360 0.471180
vn 0.325111 -0.887928 -0.325403
vn 0.325197 -0.325200 -0.887971
vn 0.887905 -0.325183 -0.325394
vn 0.382679 -0.923881 -0.000000
vn 0.923886 -0.382668 -0.000000
vn 0.325049 -0.325161 0.888039
vn 0.325357 -0.887952 0.325090
vn 0.887921 -0.325368 0.325165
s 1
g OutsideCorner_HP
usemtl initialShadingGroup
f 2/1/1 1/65/2 69/125/3 68/47/4
s 2
f 1/65/5 6/49/6 70/13/7 69/125/8
s 3
f 4/2/9 3/66/10 13/76/11 12/41/12
s 1
f 3/67/13 2/1/1 14/3/14 13/75/15
s 2
f 6/49/6 5/68/16 23/85/17 22/50/18
s 3
f 5/69/19 4/2/9 24/8/20 23/84/21
s 1
f 8/4/22 7/70/23 77/133/24 76/48/25
f 7/71/23 14/3/14 78/22/26 77/132/24
s 3
f 10/5/27 9/72/28 19/81/29 18/42/30
s 1
f 9/73/31 8/4/22 20/6/32 19/80/33
s 3
f 12/41/12 11/74/34 31/91/35 30/9/36
f 11/74/34 10/5/27 32/10/37 31/91/35
s 6
f 16/7/38 15/77/39 85/139/40 84/20/41
s 1
f 15/77/42 20/6/32 86/25/43 85/139/44
s 3
f 18/42/30 17/78/45 39/99/46 38/11/47
s 6
f 17/79/48 16/7/38 40/12/49 39/98/50
s 7
f 22/50/51 21/82/52 45/105/53 44/51/54
s 6
f 21/83/55 26/43/56 46/15/57 45/104/58
f 26/43/59 25/86/60 29/90/61 28/44/62
s 3
f 25/87/63 24/8/20 30/9/36 29/89/64
s 6
f 28/44/62 27/88/65 53/111/66 52/16/67
f 27/88/65 34/45/68 54/17/69 53/111/66
f 34/45/68 33/92/70 37/97/71 36/46/72
s 3
f 33/93/73 32/10/37 38/11/47 37/96/74
s 6
f 36/46/72 35/94/75 61/119/76 60/18/77
f 35/95/75 40/12/49 62/19/78 61/118/76
s 10
f 42/14/79 41/100/80 91/145/81 90/64/82
s 6
f 41/101/83 48/52/84 92/29/85 91/144/86
s 2
f 44/51/87 43/102/88 71/127/89 70/13/7
s 12
f 43/103/90 42/14/91 72/21/92 71/126/93
s 6
f 48/52/84 47/106/94 51/110/95 50/53/96
f 47/107/94 46/15/57 52/16/67 51/109/95
f 50/53/96 49/108/97 99/151/98 98/30/99
f 49/108/97 56/54/100 100/31/101 99/151/98
f 56/54/100 55/112/102 59/117/103 58/55/104
f 55/113/102 54/17/69 60/18/77 59/116/103
f 58/55/104 57/114/105 107/159/106 106/32/107
f 57/115/105 64/63/108 108/33/109 107/158/106
f 64/63/108 63/120/110 83/138/111 82/62/112
f 63/121/113 62/19/78 84/20/41 83/137/114
s 1
f 66/23/115 65/122/116 109/160/117 114/60/118
s 12
f 65/122/119 72/21/92 110/28/120 109/160/121
s 1
f 68/47/4 67/123/122 79/135/123 78/22/26
f 67/124/122 66/23/115 80/24/124 79/134/123
f 74/26/125 73/128/126 115/166/127 122/61/128
f 73/129/126 80/24/124 116/35/129 115/165/127
f 76/48/25 75/130/130 87/141/131 86/25/43
f 75/131/130 74/26/125 88/27/132 87/140/131
s 6
f 82/62/112 81/136/133 123/172/134 128/34/135
s 1
f 81/136/136 88/27/132 124/38/137 123/172/138
s 12
f 90/64/139 89/142/140 111/162/141 110/28/120
s 16
f 89/143/142 94/56/143 112/36/144 111/161/145
f 94/56/143 93/146/146 97/150/147 96/57/148
s 6
f 93/147/149 92/29/150 98/30/99 97/149/151
s 16
f 96/57/148 95/148/152 119/169/153 118/37/154
f 95/148/152 102/58/155 120/39/156 119/169/153
f 102/58/155 101/152/157 105/157/158 104/59/159
s 6
f 101/153/160 100/31/101 106/32/107 105/156/161
s 16
f 104/59/159 103/154/162 127/176/163 126/40/164
s 6
f 103/155/165 108/33/109 128/34/135 127/175/166
s 1
f 114/60/118 113/163/167 117/168/168 116/35/129
s 16
f 113/164/169 112/36/144 118/37/154 117/167/170
s 1
f 122/61/128 121/170/171 125/174/172 124/38/137
s 16
f 121/171/173 120/39/156 126/40/164 125/173/174
s 3
f 4/2/9 12/41/12 30/9/36 24/8/20
f 10/5/27 18/42/30 38/11/47 32/10/37
s 6
f 26/43/59 28/44/62 52/16/67 46/15/57
f 34/45/68 36/46/72 60/18/77 54/17/69
s 1
f 68/47/4 78/22/26 14/3/14 2/1/1
f 76/48/25 86/25/43 20/6/32 8/4/22
s 6
f 16/7/38 84/20/41 62/19/78 40/12/49
s 2
f 70/13/7 6/49/6 22/50/18 44/51/87
s 6
f 48/52/84 50/53/96 98/30/99 92/29/150
f 56/54/100 58/55/104 106/32/107 100/31/101
s 16
f 94/56/143 96/57/148 118/37/154 112/36/144
f 102/58/155 104/59/159 126/40/164 120/39/156
s 1
f 114/60/118 116/35/129 80/24/124 66/23/115
f 122/61/128 124/38/137 88/27/132 74/26/125
s 6
f 82/62/112 128/34/135 108/33/109 64/63/108
s 12
f 110/28/120 72/21/92 42/14/91 90/64/139
s 2
f 5/68/16 6/49/6 1/65/5 129/177/175
s 1
f 1/65/2 2/1/1 3/67/13 129/177/176
s 3
f 3/66/10 4/2/9 5/69/19 129/178/177
s 1
f 13/75/15 14/3/14 7/71/23 130/180/178
f 7/70/23 8/4/22 9/73/31 130/181/178
s 3
f 9/72/28 10/5/27 11/74/34 130/179/179
f 11/74/34 12/41/12 13/76/11 130/179/179
s 1
f 19/80/33 20/6/32 15/77/42 131/182/180
s 6
f 15/77/39 16/7/38 17/79/48 131/182/181
s 3
f 17/78/45 18/42/30 19/81/29 131/183/182
s 6
f 25/86/60 26/43/59 21/83/183 132/186/184
s 2
f 21/82/185 22/50/18 23/85/17 132/184/186
s 3
f 23/84/21 24/8/20 25/87/63 132/185/187
s 6
f 33/92/70 34/45/68 27/88/65 133/188/188
f 27/88/65 28/44/62 29/90/61 133/188/188
s 3
f 29/89/64 30/9/36 31/91/35 133/187/189
f 31/91/35 32/10/37 33/93/73 133/187/189
s 6
f 39/98/50 40/12/49 35/95/75 134/191/190
f 35/94/75 36/46/72 37/97/71 134/189/190
s 3
f 37/96/74 38/11/47 39/99/46 134/190/191
s 6
f 47/106/94 48/52/84 41/101/83 135/194/192
s 10
f 41/100/80 42/14/79 43/103/193 135/195/194
s 7
f 43/102/195 44/51/54 45/105/53 135/192/196
s 6
f 45/104/58 46/15/57 47/107/94 135/193/192
f 55/112/102 56/54/100 49/108/97 136/197/197
f 49/108/97 50/53/96 51/110/95 136/197/197
f 51/109/95 52/16/67 53/111/66 136/196/197
f 53/111/66 54/17/69 55/113/102 136/196/197
f 63/120/110 64/63/108 57/115/105 137/200/198
f 57/114/105 58/55/104 59/117/103 137/201/198
f 59/116/103 60/18/77 61/119/76 137/198/199
f 61/118/76 62/19/78 63/121/113 137/199/199
s 12
f 71/126/93 72/21/92 65/122/119 138/203/200
s 1
f 65/122/116 66/23/115 67/124/122 138/203/201
f 67/123/122 68/47/4 69/125/3 138/202/201
s 2
f 69/125/8 70/13/7 71/127/89 138/202/202
s 1
f 79/134/123 80/24/124 73/129/126 139/206/203
f 73/128/126 74/26/125 75/131/130 139/207/203
f 75/130/130 76/48/25 77/133/24 139/204/203
f 77/132/24 78/22/26 79/135/123 139/205/203
f 87/140/131 88/27/132 81/136/136 140/209/204
s 6
f 81/136/133 82/62/112 83/138/111 140/209/205
f 83/137/114 84/20/41 85/139/40 140/208/206
s 1
f 85/139/44 86/25/43 87/141/131 140/208/204
s 16
f 93/146/146 94/56/143 89/143/142 141/212/207
s 12
f 89/142/140 90/64/139 91/145/208 141/210/209
s 6
f 91/144/210 92/29/150 93/147/149 141/211/211
s 16
f 101/152/157 102/58/155 95/148/152 142/214/212
f 95/148/152 96/57/148 97/150/147 142/214/212
s 6
f 97/149/151 98/30/99 99/151/98 142/213/213
f 99/151/98 100/31/101 101/153/160 142/213/213
f 107/158/106 108/33/109 103/155/165 143/217/214
s 16
f 103/154/162 104/59/159 105/157/158 143/215/215
s 6
f 105/156/161 106/32/107 107/159/106 143/216/214
s 1
f 113/163/167 114/60/118 109/160/117 144/218/216
s 12
f 109/160/121 110/28/120 111/162/141 144/218/217
s 16
f 111/161/145 112/36/144 113/164/169 144/219/218
s 1
f 121/170/171 122/61/128 115/166/127 145/221/219
f 115/165/127 116/35/129 117/168/168 145/222/219
s 16
f 117/167/170 118/37/154 119/169/153 145/220/220
f 119/169/153 120/39/156 121/171/173 145/220/220
s 6
f 127/175/166 128/34/135 123/172/134 146/223/221
s 1
f 123/172/138 124/38/137 125/174/172 146/223/222
s 16
f 125/173/174 126/40/164 127/176/163 146/224/223
