# This file uses centimeters as units for non-parametric coordinates.

mtllib Wall_hp.mtl
g default
v -0.994660 0.005340 -0.018237
v -0.981769 0.000000 -0.018231
v -0.981777 0.005340 -0.005340
v -0.981769 0.018231 0.000000
v -0.994660 0.018231 -0.005340
v -1.000000 0.018231 -0.018231
v -0.500000 0.000000 -0.018231
v -0.487109 0.000000 -0.018231
v -0.487110 0.005340 -0.005340
v -0.487109 0.018231 0.000000
v -0.500000 0.018231 0.000000
v -0.512891 0.018231 0.000000
v -0.512893 0.005340 -0.005340
v -0.512891 0.000000 -0.018231
v -0.005340 0.005340 -0.018224
v 0.000000 0.018231 -0.018231
v -0.005340 0.018231 -0.005340
v -0.018231 0.018231 0.000000
v -0.018241 0.005340 -0.005340
v -0.018231 0.000000 -0.018231
v -0.992245 1.206005 -0.016175
v -1.000000 1.194553 -0.016196
v -0.993888 1.188458 -0.004743
v -0.979284 1.173586 0.000000
v -0.978965 1.194425 -0.004743
v -0.978732 1.203055 -0.016196
v -0.499786 0.700399 -0.018314
v -0.509059 0.709519 -0.018541
v -0.510724 0.703109 -0.005373
v -0.512516 0.687476 0.000000
v -0.501768 0.677622 0.000000
v -0.486940 0.665900 0.000000
v -0.488549 0.684349 -0.005279
v -0.489941 0.691953 -0.018176
v -0.003013 0.298552 -0.018712
v -0.011458 0.309166 -0.018703
v -0.014496 0.304204 -0.005312
v -0.017483 0.291597 0.000000
v -0.005776 0.286051 -0.005311
v 0.000000 0.285327 -0.018703
v -0.993737 1.187237 -2.994975
v -1.000000 1.192615 -2.982786
v -0.992233 1.205268 -2.983317
v -0.978732 1.203055 -2.983804
v -0.978965 1.194425 -2.995257
v -0.979284 1.173586 -3.000000
v -0.501806 0.677636 -3.000000
v -0.512533 0.687459 -3.000000
v -0.510691 0.703050 -2.994676
v -0.508983 0.709439 -2.981614
v -0.499745 0.700361 -2.981710
v -0.489941 0.691953 -2.981824
v -0.488549 0.684349 -2.994721
v -0.486940 0.665900 -3.000000
v -0.005785 0.286155 -2.994769
v -0.017483 0.291597 -3.000000
v -0.014421 0.304131 -2.994768
v -0.011313 0.309051 -2.981533
v -0.002975 0.298570 -2.981528
v 0.000000 0.285512 -2.981533
v -0.994660 0.005340 -2.981766
v -1.000000 0.018231 -2.981769
v -0.994660 0.018231 -2.994660
v -0.981769 0.018231 -3.000000
v -0.981777 0.005340 -2.994660
v -0.981769 0.000000 -2.981769
v -0.500000 0.000000 -2.981769
v -0.512891 0.000000 -2.981769
v -0.512893 0.005340 -2.994660
v -0.512891 0.018231 -3.000000
v -0.500000 0.018231 -3.000000
v -0.487109 0.018231 -3.000000
v -0.487110 0.005340 -2.994660
v -0.487109 0.000000 -2.981769
v -0.005340 0.005340 -2.981773
v -0.018231 0.000000 -2.981769
v -0.018241 0.005340 -2.994660
v -0.018231 0.018231 -3.000000
v -0.005340 0.018231 -2.994660
v 0.000000 0.018231 -2.981769
v -0.992294 0.007709 -0.007711
v -0.499996 0.005340 -0.005340
v -0.007706 0.007709 -0.007708
v -0.990020 1.200434 -0.006821
v -0.501103 0.694164 -0.005346
v -0.006305 0.296971 -0.007733
v -0.989929 1.199819 -2.992975
v -0.501105 0.694148 -2.994675
v -0.006281 0.296983 -2.992380
v -0.992295 0.007709 -2.992290
v -0.499996 0.005340 -2.994660
v -0.007706 0.007709 -2.992291
vt 0.419452 0.010422
vt 0.309134 0.382455
vt 0.340909 0.010422
vt 0.988377 0.010422
vt 0.309163 0.446937
vt 0.909835 0.010422
vt 0.903727 0.010422
vt 0.156181 0.382779
vt 0.221123 0.443622
vt 0.223994 0.446959
vt 0.274243 0.508282
vt 0.858986 0.010501
vt 0.425559 0.506847
vt 0.632942 0.507188
vt 0.747086 0.506821
vt 0.751427 0.506856
vt 0.854101 0.506807
vt 0.858955 0.506807
vt 0.903727 0.506847
vt 0.340910 0.506847
vt 0.324278 0.161478
vt 0.255106 0.161478
vt 0.909835 0.506847
vt 0.251313 0.161559
vt 0.182510 0.161669
vt 0.309134 0.443573
vt 0.309201 0.508184
vt 0.632942 0.010080
vt 0.747068 0.010474
vt 0.751426 0.010413
vt 0.854070 0.010502
vt 0.323911 0.325185
vt 0.255053 0.257988
vt 0.251288 0.254973
vt 0.182401 0.203933
vt 0.419452 0.506847
vt 0.988377 0.506847
vt 0.425559 0.010422
vt 0.622606 0.010081
vt 0.622282 0.507017
vt 0.422510 0.010417
vt 0.311532 0.381538
vt 0.420630 0.007368
vt 0.424404 0.007368
vt 0.310031 0.380078
vt 0.990537 0.009712
vt 0.338750 0.009712
vt 0.311532 0.446961
vt 0.988347 0.007368
vt 0.309158 0.445255
vt 0.340942 0.007368
vt 0.311532 0.443547
vt 0.906769 0.010415
vt 0.310072 0.510565
vt 0.904868 0.007368
vt 0.908660 0.007368
vt 0.311532 0.509100
vt 0.627774 0.010075
vt 0.151027 0.380078
vt 0.625581 0.007368
vt 0.629973 0.007368
vt 0.150565 0.381258
vt 0.749251 0.010433
vt 0.218172 0.444038
vt 0.747003 0.007368
vt 0.222420 0.445025
vt 0.751961 0.007368
vt 0.220829 0.446893
vt 0.856531 0.010497
vt 0.272230 0.509414
vt 0.854637 0.007368
vt 0.858468 0.007368
vt 0.274658 0.510565
vt 0.625487 0.509901
vt 0.326967 0.330517
vt 0.627838 0.507108
vt 0.325665 0.331170
vt 0.629918 0.509901
vt 0.253474 0.256626
vt 0.747012 0.509901
vt 0.254575 0.261159
vt 0.749254 0.506840
vt 0.251363 0.258441
vt 0.751960 0.509901
vt 0.179835 0.203478
vt 0.858451 0.509901
vt 0.854654 0.509901
vt 0.181117 0.206207
vt 0.856531 0.506812
vt 0.422510 0.506852
vt 0.326967 0.160455
vt 0.424405 0.509901
vt 0.420630 0.509901
vt 0.325315 0.158849
vt 0.338750 0.507557
vt 0.990537 0.507557
vt 0.255135 0.158849
vt 0.340942 0.509901
vt 0.253210 0.161507
vt 0.988347 0.509901
vt 0.251286 0.158849
vt 0.906769 0.506853
vt 0.181481 0.158849
vt 0.908660 0.509901
vt 0.904868 0.509901
vt 0.179835 0.160615
vt 0.422505 0.007368
vt 0.311532 0.380078
vt 0.311532 0.445253
vt 0.338750 0.007368
vt 0.990537 0.007368
vt 0.906781 0.007368
vt 0.311532 0.510565
vt 0.627774 0.007368
vt 0.149294 0.380078
vt 0.219481 0.445253
vt 0.749269 0.007368
vt 0.856528 0.007368
vt 0.273177 0.510565
vt 0.627774 0.509901
vt 0.326967 0.332452
vt 0.749269 0.509901
vt 0.253204 0.259809
vt 0.179835 0.205254
vt 0.856528 0.509901
vt 0.422505 0.509901
vt 0.326967 0.158849
vt 0.253205 0.158849
vt 0.990537 0.509901
vt 0.338750 0.509901
vt 0.906781 0.509901
vt 0.179835 0.158849
vn -0.011063 -0.999937 0.001778
vn -0.382560 -0.923930 0.001108
vn -0.382560 -0.923930 -0.001108
vn -0.011065 -0.999937 -0.001778
vn -0.923931 -0.382558 0.001108
vn -0.999988 -0.004480 0.001908
vn -0.999988 -0.004482 -0.001932
vn -0.923931 -0.382557 -0.001108
vn -0.013184 -0.005672 0.999897
vn -0.006899 -0.381904 0.924176
vn 0.000000 -0.382683 0.923880
vn 0.000000 -0.005828 0.999983
vn -0.006899 -0.924177 0.381902
vn -0.000000 -0.999998 0.001794
vn -0.000000 -0.923880 0.382684
vn -0.905214 -0.003066 0.424945
vn -0.904504 0.002176 0.426460
vn -0.999999 0.000019 0.001414
vn -0.344184 -0.002441 0.938899
vn -0.020539 0.014415 0.999685
vn -0.335779 0.007700 0.941910
vn 0.000000 -0.999998 0.001794
vn -0.000000 -0.999998 0.001794
vn 0.000000 -0.999998 -0.001794
vn -0.000000 -0.999998 -0.001794
vn 0.000000 -0.999998 -0.001794
vn -0.000000 -0.011118 0.999938
vn -0.000000 -0.382683 0.923880
vn 0.006884 -0.381907 0.924175
vn 0.006564 -0.011275 0.999915
vn 0.000000 -0.923879 0.382684
vn 0.011070 -0.999937 0.001777
vn 0.006883 -0.924174 0.381909
vn -0.000000 -0.007987 0.999968
vn 0.006233 0.007674 0.999951
vn 0.002325 0.002233 0.999995
vn 0.019964 0.024971 0.999489
vn 0.999817 -0.019055 0.001841
vn 0.923930 -0.382559 0.001109
vn 0.923930 -0.382559 -0.001109
vn 0.999817 -0.019044 -0.001841
vn 0.382559 -0.923931 0.001111
vn 0.011068 -0.999937 -0.001777
vn 0.382559 -0.923930 -0.001110
vn 0.395371 -0.012521 0.918436
vn 0.399530 0.005323 0.916705
vn 0.008286 0.005960 0.999948
vn 0.921622 -0.010594 0.387944
vn 0.999942 0.010649 0.001895
vn 0.921560 0.007503 0.388165
vn -0.840761 0.541407 -0.000246
vn -0.840761 0.541407 -0.000246
vn -0.840761 0.541407 -0.000246
vn -0.840761 0.541407 -0.000246
vn 0.187690 0.982228 -0.000122
vn 0.187690 0.982228 -0.000122
vn 0.187690 0.982228 -0.000122
vn 0.187690 0.982228 -0.000122
vn 0.724380 0.689399 0.001471
vn 0.651076 0.624268 0.431729
vn 0.653768 0.623032 0.429439
vn 0.723970 0.689827 0.002246
vn 0.236555 0.243478 0.940617
vn 0.256328 0.244904 0.935050
vn 0.676200 0.736715 0.001966
vn 0.676297 0.736626 -0.001955
vn 0.723973 0.689825 -0.002249
vn 0.625245 0.780427 0.001380
vn 0.625245 0.780427 -0.001381
vn 0.578156 0.721448 0.381114
vn 0.580480 0.719831 0.380639
vn 0.628414 0.777877 0.001856
vn 0.241327 0.302344 0.922144
vn 0.245333 0.302768 0.920947
vn 0.901303 0.433188 0.001369
vn 0.901303 0.433188 -0.001331
vn 0.628415 0.777876 -0.001853
vn 0.999941 0.010657 -0.001892
vn -0.999999 0.000020 -0.001508
vn -0.907227 0.002664 -0.420634
vn -0.907852 -0.002698 -0.419281
vn -0.347108 0.007372 -0.937796
vn -0.021009 0.014398 -0.999676
vn -0.013544 -0.005667 -0.999892
vn -0.354200 -0.002295 -0.935167
vn 0.233759 0.242478 -0.941574
vn 0.255150 0.243805 -0.935659
vn 0.002319 0.002227 -0.999995
vn 0.649987 0.623923 -0.433862
vn 0.724377 0.689402 -0.001473
vn 0.653079 0.622352 -0.431469
vn 0.006229 0.007653 -0.999951
vn 0.000000 -0.007985 -0.999968
vn -0.000001 -0.005828 -0.999983
vn 0.019809 0.024785 -0.999497
vn 0.000000 -0.011117 -0.999938
vn 0.239884 0.300604 -0.923089
vn 0.243718 0.300917 -0.921982
vn 0.008256 0.005940 -0.999948
vn 0.577513 0.720785 -0.383338
vn 0.579751 0.719196 -0.382944
vn 0.397010 0.005114 -0.917800
vn 0.393033 -0.012663 -0.919437
vn 0.006517 -0.011277 -0.999915
vn 0.920556 0.007110 -0.390545
vn 0.920702 -0.010851 -0.390114
vn -0.006897 -0.924178 -0.381901
vn 0.000000 -0.923880 -0.382683
vn -0.006898 -0.381903 -0.924177
vn 0.000000 -0.382683 -0.923880
vn -0.000000 -0.923880 -0.382683
vn 0.006884 -0.924175 -0.381908
vn 0.000000 -0.382683 -0.923880
vn 0.006886 -0.381907 -0.924175
vn -0.887975 -0.325273 0.325111
vn -0.325448 -0.887923 0.325078
vn -0.325417 -0.325212 0.887886
vn -0.000000 -0.923879 0.382685
vn -0.000000 -0.382682 0.923880
vn 0.325029 -0.887937 0.325459
vn 0.887982 -0.325099 0.325267
vn 0.325085 -0.325345 0.887958
vn 0.251242 0.810476 0.529157
vn 0.251242 0.810476 0.529157
vn -0.740834 0.413977 0.528950
vn -0.740834 0.413977 0.528950
vn -0.085297 0.213183 0.973282
vn 0.602829 0.697333 0.387716
vn 0.249294 0.287500 0.924768
vn 0.840957 0.404123 0.359827
vn 0.476866 0.229123 0.848588
vn -0.121066 0.210642 -0.970038
vn -0.777840 0.385709 -0.496179
vn -0.777840 0.385709 -0.496179
vn 0.196293 0.824562 -0.530628
vn 0.196293 0.824562 -0.530628
vn 0.248751 0.286191 -0.925320
vn 0.603202 0.696470 -0.388686
vn 0.839150 0.403260 -0.364978
vn 0.471154 0.226360 -0.852511
vn -0.325392 -0.887936 -0.325101
vn -0.887995 -0.325203 -0.325128
vn -0.325392 -0.325168 -0.887911
vn 0.000003 -0.923880 -0.382683
vn 0.000007 -0.382683 -0.923880
vn 0.887975 -0.325151 -0.325234
vn 0.325087 -0.887927 -0.325429
vn 0.325112 -0.325390 -0.887932
s 1
g Wall_HP
usemtl initialShadingGroup
f 2/1/1 1/41/2 61/90/3 66/36/4
s 2
f 1/41/5 6/38/6 62/13/7 61/90/8
s 3
f 4/2/9 3/42/10 13/52/11 12/26/12
s 1
f 3/43/13 2/1/1 14/3/14 13/51/15
s 2
f 6/38/6 5/44/16 23/60/17 22/39/18
s 3
f 5/45/19 4/2/9 24/8/20 23/59/21
s 1
f 8/4/22 7/46/23 67/96/24 74/37/25
f 7/47/23 14/3/14 68/20/26 67/95/24
s 3
f 10/5/27 9/48/28 19/57/29 18/27/30
s 1
f 9/49/31 8/4/22 20/6/32 19/56/33
s 3
f 12/26/12 11/50/34 31/66/35 30/9/36
f 11/50/34 10/5/27 32/10/37 31/66/35
s 6
f 16/7/38 15/53/39 75/102/40 80/19/41
s 1
f 15/53/42 20/6/32 76/23/43 75/102/44
s 3
f 18/27/30 17/54/45 39/73/46 38/11/47
s 6
f 17/55/48 16/7/38 40/12/49 39/72/50
s off
f 22/39/51 21/58/52 43/76/53 42/40/54
f 21/58/55 26/28/56 44/14/57 43/76/58
s 6
f 26/28/59 25/61/60 29/65/61 28/29/62
s 3
f 25/62/63 24/8/20 30/9/36 29/64/64
s 6
f 28/29/62 27/63/65 51/82/66 50/15/67
f 27/63/65 34/30/68 52/16/69 51/82/66
f 34/30/68 33/67/70 37/71/71 36/31/72
s 3
f 33/68/73 32/10/37 38/11/47 37/70/74
s 6
f 36/31/72 35/69/75 59/89/76 58/17/77
f 35/69/75 40/12/49 60/18/78 59/89/76
s 2
f 42/40/79 41/74/80 63/92/81 62/13/7
s 9
f 41/75/82 46/32/83 64/21/84 63/91/85
f 46/32/83 45/77/86 49/81/87 48/33/88
s 6
f 45/78/89 44/14/90 50/15/67 49/80/91
s 9
f 48/33/88 47/79/92 71/99/93 70/22/94
f 47/79/92 54/34/95 72/24/96 71/99/93
f 54/34/95 53/83/97 57/88/98 56/35/99
s 6
f 53/84/100 52/16/69 58/17/77 57/87/101
s 9
f 56/35/99 55/85/102 79/106/103 78/25/104
s 6
f 55/86/105 60/18/78 80/19/41 79/105/106
s 1
f 66/36/4 65/93/107 69/98/108 68/20/26
s 9
f 65/94/109 64/21/84 70/22/94 69/97/110
s 1
f 74/37/25 73/100/111 77/104/112 76/23/43
s 9
f 73/101/113 72/24/96 78/25/104 77/103/114
s 3
f 4/2/9 12/26/12 30/9/36 24/8/20
f 10/5/27 18/27/30 38/11/47 32/10/37
s 6
f 26/28/59 28/29/62 50/15/67 44/14/90
f 34/30/68 36/31/72 58/17/77 52/16/69
s 9
f 46/32/83 48/33/88 70/22/94 64/21/84
f 54/34/95 56/35/99 78/25/104 72/24/96
s 1
f 66/36/4 68/20/26 14/3/14 2/1/1
f 74/37/25 76/23/43 20/6/32 8/4/22
s 6
f 16/7/38 80/19/41 60/18/78 40/12/49
s 2
f 62/13/7 6/38/6 22/39/18 42/40/79
f 5/44/16 6/38/6 1/41/5 81/107/115
s 1
f 1/41/2 2/1/1 3/43/13 81/107/116
s 3
f 3/42/10 4/2/9 5/45/19 81/108/117
s 1
f 13/51/15 14/3/14 7/47/23 82/110/118
f 7/46/23 8/4/22 9/49/31 82/111/118
s 3
f 9/48/28 10/5/27 11/50/34 82/109/119
f 11/50/34 12/26/12 13/52/11 82/109/119
s 1
f 19/56/33 20/6/32 15/53/42 83/112/120
s 6
f 15/53/39 16/7/38 17/55/48 83/112/121
s 3
f 17/54/45 18/27/30 19/57/29 83/113/122
s 6
f 25/61/60 26/28/59 21/58/123 84/114/124
s 2
f 21/58/125 22/39/18 23/60/17 84/114/126
s 3
f 23/59/21 24/8/20 25/62/63 84/115/127
s 6
f 33/67/70 34/30/68 27/63/65 85/117/128
f 27/63/65 28/29/62 29/65/61 85/117/128
s 3
f 29/64/64 30/9/36 31/66/35 85/116/129
f 31/66/35 32/10/37 33/68/73 85/116/129
s 6
f 39/72/50 40/12/49 35/69/75 86/118/130
f 35/69/75 36/31/72 37/71/71 86/118/130
s 3
f 37/70/74 38/11/47 39/73/46 86/119/131
s 9
f 45/77/86 46/32/83 41/75/82 87/121/132
s 2
f 41/74/80 42/40/79 43/76/133 87/120/134
s 6
f 43/76/135 44/14/90 45/78/89 87/120/136
s 9
f 53/83/97 54/34/95 47/79/92 88/123/137
f 47/79/92 48/33/88 49/81/87 88/123/137
s 6
f 49/80/91 50/15/67 51/82/66 88/122/138
f 51/82/66 52/16/69 53/84/100 88/122/138
f 59/89/76 60/18/78 55/86/105 89/125/139
s 9
f 55/85/102 56/35/99 57/88/98 89/124/140
s 6
f 57/87/101 58/17/77 59/89/76 89/125/139
s 1
f 65/93/107 66/36/4 61/90/3 90/126/141
s 2
f 61/90/8 62/13/7 63/92/81 90/126/142
s 9
f 63/91/85 64/21/84 65/94/109 90/127/143
s 1
f 73/100/111 74/37/25 67/96/24 91/129/144
f 67/95/24 68/20/26 69/98/108 91/130/144
s 9
f 69/97/110 70/22/94 71/99/93 91/128/145
f 71/99/93 72/24/96 73/101/113 91/128/145
s 6
f 79/105/106 80/19/41 75/102/40 92/131/146
s 1
f 75/102/44 76/23/43 77/104/112 92/131/147
s 9
f 77/103/114 78/25/104 79/106/103 92/132/148
