# This file uses centimeters as units for non-parametric coordinates.

mtllib OutsideBend_lp.mtl
g default
v -1.000000 0.000000 0.000000
v -0.500003 0.000000 -0.000003
v -0.002941 0.000000 0.002938
v -1.000000 1.225404 0.000000
v -0.500003 0.700000 -0.000002
v -0.002941 0.300000 0.002938
v 0.172718 1.225405 -2.962128
v 0.488814 0.700000 -2.570957
v 0.816546 0.300000 -2.191493
v 0.161001 0.000000 -2.950339
v 0.485976 0.000000 -2.568127
v 0.816546 0.000000 -2.191503
v 3.000039 1.225404 -3.999999
v 3.000009 0.700000 -3.499922
v 3.000000 0.300000 -2.999842
v 3.000022 0.000000 -4.000000
v 3.000005 0.000000 -3.499971
v 3.000000 0.000000 -2.999858
v 1.428505 1.225404 -3.752803
v 1.426438 0.000000 -3.750739
v 1.602263 0.000000 -3.273223
v 1.779680 0.000000 -2.797225
v 1.779680 0.300000 -2.797212
v 1.603373 0.700000 -3.274296
v -0.681592 1.225404 -1.642708
v -0.685362 0.000000 -1.638920
v -0.240492 0.000000 -1.430485
v 0.201417 0.000000 -1.219070
v 0.201417 0.300000 -1.219066
v -0.239308 0.700000 -1.431665
v 2.179381 0.000000 -3.939105
v 2.179398 1.225404 -3.939104
v 2.272186 0.700000 -3.443896
v 2.365534 0.300000 -2.949227
v 2.365534 0.000000 -2.949241
v 2.272182 0.000000 -3.443943
v 0.756668 1.225404 -3.428668
v 0.750980 0.000000 -3.422953
v 1.000604 0.000000 -2.978953
v 1.259227 0.000000 -2.543944
v 1.259227 0.300000 -2.543933
v 1.004256 0.700000 -2.982594
v -0.321885 0.000000 -2.350052
v -0.313882 1.225404 -2.358102
v 0.071017 0.700000 -2.049379
v 0.461215 0.300000 -1.745991
v 0.461215 0.000000 -1.745998
v 0.069030 0.000000 -2.047398
v -0.917002 1.225404 -0.842738
v -0.917004 0.000000 -0.842740
v -0.433087 0.000000 -0.738709
v 0.044574 0.000000 -0.628407
v 0.044574 0.300000 -0.628405
v -0.432599 0.700000 -0.739195
v -0.979200 1.225404 -0.423407
v -0.979201 0.000000 -0.423408
v -0.482767 0.000000 -0.373247
v 0.006816 0.000000 -0.316208
v 0.006816 0.300000 -0.316208
v -0.482575 0.700000 -0.373438
v -0.818513 0.000000 -1.249440
v -0.816597 1.225404 -1.251361
v -0.351161 0.700000 -1.093163
v 0.109694 0.300000 -0.930372
v 0.109694 0.000000 -0.930375
v -0.351980 0.000000 -1.092346
v -0.513497 1.225404 -2.012793
v -0.519309 0.000000 -2.006951
v -0.099760 0.000000 -1.749805
v 0.318894 0.000000 -1.491746
v 0.318894 0.300000 -1.491740
v -0.098185 0.700000 -1.751375
v -0.094618 0.000000 -2.665295
v -0.084318 1.225404 -2.675657
v 0.267089 0.700000 -2.323227
v 0.627430 0.300000 -1.979789
v 0.627430 0.000000 -1.979797
v 0.264677 0.000000 -2.320823
v 0.452497 1.225404 -3.212478
v 0.443508 0.000000 -3.203439
v 0.731707 0.000000 -2.787842
v 1.027520 0.000000 -2.379853
v 1.027520 0.300000 -2.379841
v 0.734963 0.700000 -2.791088
v 1.077640 0.000000 -3.603924
v 1.083734 1.225404 -3.610045
v 1.295316 0.700000 -3.144846
v 1.510419 0.300000 -2.683169
v 1.510419 0.000000 -2.683182
v 1.291302 0.000000 -3.140845
v 1.794163 1.225404 -3.862101
v 1.794147 0.000000 -3.862103
v 1.929232 0.000000 -3.373533
v 2.065360 0.000000 -2.885923
v 2.065360 0.300000 -2.885909
v 1.929235 0.700000 -3.373488
v 2.582252 0.000000 -3.984838
v 2.582269 1.225404 -3.984837
v 2.630024 0.700000 -3.485942
v 2.677948 0.300000 -2.987193
v 2.677948 0.000000 -2.987207
v 2.630021 0.000000 -3.485991
vt 0.430738 0.009310
vt 0.351660 0.009310
vt 0.739252 0.009310
vt 0.624543 0.009310
vt 0.887968 0.009310
vt 0.840522 0.009310
vt 0.840522 0.483778
vt 0.967046 0.483778
vt 0.430738 0.483778
vt 0.887968 0.483778
vt 0.624543 0.483778
vt 0.325961 0.484406
vt 0.289749 0.484406
vt 0.325961 0.361206
vt 0.172784 0.361206
vt 0.739252 0.483778
vt 0.239051 0.422741
vt 0.325961 0.422741
vt 0.351660 0.483778
vt 0.967046 0.009310
vt 0.624543 0.498784
vt 0.739252 0.498784
vt 0.739252 0.973252
vt 0.624543 0.973252
vt 0.840522 0.498784
vt 0.840522 0.973252
vt 0.340535 0.805713
vt 0.270892 0.737127
vt 0.270892 0.641805
vt 0.340535 0.641805
vt 0.201620 0.685619
vt 0.201620 0.641805
vt 0.430738 0.973252
vt 0.351660 0.973252
vt 0.351660 0.498784
vt 0.430738 0.498784
vt 0.967046 0.973252
vt 0.887968 0.973252
vt 0.887968 0.498784
vt 0.967046 0.498784
vt 0.624543 0.736018
vt 0.430738 0.736018
vt 0.351660 0.736018
vt 0.967046 0.736018
vt 0.887968 0.736018
vt 0.840522 0.736018
vt 0.739252 0.736018
vt 0.624543 0.246544
vt 0.430738 0.246544
vt 0.351660 0.246544
vt 0.967046 0.246544
vt 0.887968 0.246544
vt 0.840522 0.246544
vt 0.739252 0.246544
vt 0.430738 0.854635
vt 0.624543 0.854635
vt 0.739252 0.854635
vt 0.840522 0.854635
vt 0.887968 0.854635
vt 0.351660 0.854635
vt 0.967046 0.854635
vt 0.624543 0.617401
vt 0.430738 0.617401
vt 0.351660 0.617401
vt 0.967046 0.617401
vt 0.887968 0.617401
vt 0.840522 0.617401
vt 0.739252 0.617401
vt 0.430738 0.365161
vt 0.624543 0.365161
vt 0.739252 0.365161
vt 0.840522 0.365161
vt 0.887968 0.365161
vt 0.351660 0.365161
vt 0.967046 0.365161
vt 0.624543 0.127927
vt 0.430738 0.127927
vt 0.351660 0.127927
vt 0.967046 0.127927
vt 0.887968 0.127927
vt 0.840522 0.127927
vt 0.739252 0.127927
vt 0.624543 0.068619
vt 0.430738 0.068619
vt 0.351660 0.068619
vt 0.967046 0.068619
vt 0.887968 0.068619
vt 0.840522 0.068619
vt 0.739252 0.068619
vt 0.430738 0.187236
vt 0.624543 0.187236
vt 0.739252 0.187236
vt 0.840522 0.187236
vt 0.887968 0.187236
vt 0.351660 0.187236
vt 0.967046 0.187236
vt 0.624543 0.305853
vt 0.430738 0.305853
vt 0.351660 0.305853
vt 0.967046 0.305853
vt 0.887968 0.305853
vt 0.840522 0.305853
vt 0.739252 0.305853
vt 0.430738 0.424470
vt 0.624543 0.424470
vt 0.739252 0.424470
vt 0.840522 0.424470
vt 0.887968 0.424470
vt 0.351660 0.424470
vt 0.967046 0.424470
vt 0.624543 0.558092
vt 0.430738 0.558092
vt 0.351660 0.558092
vt 0.967046 0.558092
vt 0.887968 0.558092
vt 0.840522 0.558092
vt 0.739252 0.558092
vt 0.430738 0.676709
vt 0.624543 0.676709
vt 0.739252 0.676709
vt 0.840522 0.676709
vt 0.887968 0.676709
vt 0.351660 0.676709
vt 0.967046 0.676709
vt 0.624543 0.795326
vt 0.430738 0.795326
vt 0.351660 0.795326
vt 0.967046 0.795326
vt 0.887968 0.795326
vt 0.840522 0.795326
vt 0.739252 0.795326
vt 0.430738 0.913943
vt 0.624543 0.913943
vt 0.739252 0.913943
vt 0.840522 0.913943
vt 0.887968 0.913943
vt 0.351660 0.913943
vt 0.967046 0.913943
vn 0.000004 -0.000000 1.000000
vn -0.002011 -0.000001 0.999998
vn -0.000956 -0.000000 1.000000
vn 0.000004 -0.000000 1.000000
vn -0.005915 -0.000001 0.999982
vn -0.005915 -0.000001 0.999982
vn 0.724303 0.688605 0.034748
vn 0.685367 0.727556 0.030557
vn 0.684117 0.726721 0.062141
vn 0.722356 0.688100 0.068710
vn 0.628783 0.777189 0.024681
vn 0.628215 0.776293 0.052115
vn 0.000000 -1.000000 0.000000
vn 0.000000 -1.000000 0.000000
vn 0.000000 -1.000000 0.000000
vn 0.000000 -1.000000 0.000000
vn 0.000000 -1.000000 0.000000
vn 0.000000 -1.000000 0.000000
vn 0.999533 -0.000000 0.030559
vn 0.997180 -0.000000 0.075047
vn 0.997180 -0.000000 0.075047
vn 0.999533 -0.000000 0.030559
vn -0.995185 0.000001 -0.098011
vn -0.995185 0.000001 -0.098011
vn -0.998796 0.000000 -0.049065
vn -0.998796 0.000000 -0.049065
vn 0.481906 0.691065 0.538698
vn 0.453600 0.732741 0.507284
vn 0.424805 0.732851 0.531479
vn 0.448530 0.693380 0.563955
vn 0.415507 0.781755 0.464987
vn 0.388326 0.783271 0.485478
vn 1.000000 -0.000011 0.000041
vn 1.000000 -0.000010 0.000036
vn 1.000000 -0.000008 0.000031
vn 1.000000 -0.000011 0.000041
vn 1.000000 -0.000003 0.000013
vn 1.000000 -0.000003 0.000013
vn 0.000000 -1.000000 0.000000
vn -0.000000 -1.000000 0.000000
vn -0.000000 -1.000000 0.000000
vn 0.000000 -1.000000 0.000000
vn -0.000000 -1.000000 0.000000
vn -0.000000 -1.000000 0.000000
vn 0.665976 -0.000026 0.745973
vn 0.622857 -0.000028 0.782336
vn 0.622858 -0.000028 0.782335
vn 0.665976 -0.000026 0.745973
vn -0.624413 -0.001065 -0.781094
vn -0.624984 -0.001060 -0.780637
vn -0.667054 -0.000696 -0.745009
vn -0.667054 -0.000696 -0.745009
vn -0.036270 0.000001 -0.999342
vn -0.074001 0.000002 -0.997258
vn -0.074001 0.000002 -0.997258
vn -0.036270 0.000001 -0.999342
vn 0.000000 -1.000000 0.000000
vn 0.000000 -1.000000 0.000000
vn 0.000000 -1.000000 0.000000
vn 0.000000 -1.000000 0.000000
vn 0.000000 -1.000000 0.000000
vn 0.000000 -1.000000 0.000000
vn 0.079525 -0.000050 0.996833
vn 0.079525 -0.000050 0.996833
vn 0.039249 -0.000051 0.999229
vn 0.039249 -0.000051 0.999229
vn 0.052088 0.731019 0.680366
vn 0.048493 0.781575 0.621923
vn 0.024021 0.780848 0.624259
vn 0.025656 0.730184 0.682768
vn 0.054736 0.690318 0.721432
vn 0.026779 0.689396 0.723889
vn -0.744399 0.000653 -0.667734
vn -0.779211 0.001165 -0.626761
vn -0.778710 0.001157 -0.627383
vn -0.744399 0.000653 -0.667734
vn 0.000000 -1.000000 0.000000
vn 0.000000 -1.000000 -0.000000
vn 0.000000 -1.000000 -0.000000
vn 0.000000 -1.000000 0.000000
vn 0.000000 -1.000000 -0.000000
vn 0.000000 -1.000000 -0.000000
vn 0.781786 -0.000017 0.623547
vn 0.781785 -0.000017 0.623548
vn 0.745773 -0.000019 0.666200
vn 0.745773 -0.000019 0.666200
vn 0.536645 0.726154 0.429782
vn 0.491230 0.778419 0.390841
vn 0.467148 0.779272 0.417741
vn 0.512788 0.725385 0.459201
vn 0.566155 0.685809 0.457312
vn 0.541159 0.686966 0.484999
vn -0.241751 -0.000276 -0.970338
vn -0.241752 -0.000276 -0.970338
vn -0.336763 -0.001177 -0.941589
vn -0.336629 -0.001175 -0.941637
vn 0.241858 0.696122 0.675958
vn 0.229079 0.736101 0.636929
vn 0.166355 0.734507 0.657894
vn 0.175397 0.694226 0.698059
vn 0.210871 0.785898 0.581289
vn 0.153728 0.784537 0.600724
vn 0.343154 -0.000042 0.939279
vn 0.343153 -0.000042 0.939280
vn 0.251158 -0.000045 0.967946
vn 0.251159 -0.000045 0.967946
vn 0.000000 -1.000000 0.000000
vn 0.000000 -1.000000 0.000000
vn 0.000000 -1.000000 0.000000
vn 0.000000 -1.000000 0.000000
vn 0.000000 -1.000000 0.000000
vn 0.000000 -1.000000 0.000000
vn -0.435773 -0.001849 -0.900055
vn -0.435352 -0.001849 -0.900259
vn 0.000000 -1.000000 0.000000
vn 0.000000 -1.000000 0.000000
vn 0.000000 -1.000000 0.000000
vn 0.437588 -0.000037 0.899176
vn 0.437587 -0.000037 0.899176
vn 0.295526 0.736478 0.608494
vn 0.270743 0.786173 0.555546
vn 0.312327 0.696957 0.645526
vn -0.889817 0.001998 -0.456313
vn -0.889999 0.001998 -0.455957
vn -0.929628 0.001688 -0.368495
vn -0.929540 0.001690 -0.368719
vn 0.681189 0.681324 0.267917
vn 0.645995 0.721337 0.249728
vn 0.618041 0.721766 0.311576
vn 0.651824 0.681305 0.333090
vn 0.593501 0.773194 0.223445
vn 0.567228 0.774204 0.280822
vn 0.937048 -0.000005 0.349200
vn 0.937048 -0.000005 0.349201
vn 0.896908 -0.000008 0.442217
vn 0.896909 -0.000008 0.442216
vn 0.000000 -1.000000 0.000000
vn 0.000000 -1.000000 0.000000
vn 0.000000 -1.000000 0.000000
vn 0.000000 -1.000000 0.000000
vn 0.000000 -1.000000 0.000000
vn 0.000000 -1.000000 0.000000
vn -0.959771 0.001003 -0.280781
vn -0.959739 0.001004 -0.280890
vn 0.000000 -1.000000 0.000000
vn 0.000000 -1.000000 0.000000
vn 0.000000 -1.000000 0.000000
vn 0.966506 -0.000003 0.256644
vn 0.966506 -0.000003 0.256645
vn 0.665736 0.722244 0.187507
vn 0.612097 0.773197 0.165844
vn 0.701917 0.682936 0.202263
vn -0.981428 0.000287 -0.191831
vn -0.981428 0.000287 -0.191831
vn 0.000000 -1.000000 0.000000
vn 0.000000 -1.000000 0.000000
vn 0.000000 -1.000000 0.000000
vn 0.986259 -0.000001 0.165206
vn 0.986259 -0.000001 0.165206
vn 0.623473 0.774260 0.108639
vn 0.678053 0.724289 0.125102
vn 0.715084 0.685662 0.136098
vn -0.839707 0.001858 -0.543036
vn -0.840027 0.001860 -0.542542
vn 0.000000 -1.000000 0.000000
vn 0.000000 -1.000000 0.000000
vn 0.000000 -1.000000 0.000000
vn 0.845258 -0.000012 0.534358
vn 0.845259 -0.000012 0.534357
vn 0.533066 0.776046 0.337036
vn 0.581551 0.723445 0.372057
vn 0.613439 0.682864 0.396723
vn -0.533258 -0.001664 -0.845951
vn -0.533647 -0.001662 -0.845706
vn 0.000000 -1.000000 0.000000
vn 0.000000 -1.000000 0.000000
vn 0.000000 -1.000000 0.000000
vn 0.531909 -0.000033 0.846801
vn 0.531910 -0.000033 0.846801
vn 0.330557 0.785124 0.523748
vn 0.361623 0.735284 0.573224
vn 0.382136 0.695977 0.607938
vn -0.153879 0.000003 -0.988090
vn -0.153880 0.000003 -0.988090
vn 0.000000 -1.000000 0.000000
vn 0.000000 -1.000000 0.000000
vn 0.000000 -1.000000 0.000000
vn 0.163124 -0.000048 0.986606
vn 0.163124 -0.000048 0.986606
vn 0.099652 0.782882 0.614137
vn 0.107398 0.732579 0.672155
vn 0.113035 0.692064 0.712931
s 1
g OutsideBend
usemtl initialShadingGroup
f 1/14/1 2/18/2 5/17/3 4/15/4
f 2/18/2 3/12/5 6/13/6 5/17/3
s 2
f 4/4/7 5/3/8 60/89/9 55/83/10
f 5/3/8 6/6/11 59/88/12 60/89/9
s 3
f 56/84/13 57/85/14 2/2/15 1/1/16
f 57/86/14 58/87/17 3/5/18 2/20/15
s 4
f 3/5/19 58/87/20 59/88/21 6/6/22
s 5
f 55/83/23 56/84/24 1/1/25 4/4/26
s 6
f 7/21/27 8/22/28 84/117/29 79/111/30
f 8/22/28 9/25/31 83/116/32 84/117/29
s 7
f 13/27/33 14/28/34 17/29/35 16/30/36
f 14/28/34 15/31/37 18/32/38 17/29/35
s 8
f 80/112/39 81/113/40 11/35/41 10/36/42
f 81/114/40 82/115/43 12/39/44 11/40/41
s 9
f 12/39/45 82/115/46 83/116/47 9/25/48
s 10
f 79/111/49 80/112/50 10/36/51 7/21/52
f 16/33/53 97/132/54 98/133/55 13/24/56
s 8
f 16/33/57 17/34/58 102/137/59 97/132/60
f 17/37/58 18/38/61 101/136/62 102/138/59
s 9
f 100/135/63 101/136/64 18/38/65 15/26/66
s 6
f 99/134/67 100/135/68 15/26/69 14/23/70
f 98/133/71 99/134/67 14/23/70 13/24/72
s 5
f 10/9/73 73/104/74 74/105/75 7/11/76
s 3
f 10/9/77 11/19/78 78/109/79 73/104/80
f 11/8/78 12/10/81 77/108/82 78/110/79
s 4
f 76/107/83 77/108/84 12/10/85 9/7/86
s 2
f 75/106/87 76/107/88 9/7/89 8/16/90
f 74/105/91 75/106/87 8/16/90 7/11/92
s 10
f 91/125/93 92/126/94 20/42/95 19/41/96
s 6
f 19/41/97 24/47/98 96/131/99 91/125/100
f 24/47/98 23/46/101 95/130/102 96/131/99
s 9
f 23/46/103 22/45/104 94/129/105 95/130/106
s 8
f 93/128/107 94/129/108 22/45/109 21/44/110
f 92/126/111 93/127/107 21/43/110 20/42/112
s 10
f 19/41/96 20/42/95 85/118/113 86/119/114
s 8
f 20/42/112 21/43/110 90/123/115 85/118/116
f 21/44/110 22/45/109 89/122/117 90/124/115
s 9
f 88/121/118 89/122/119 22/45/104 23/46/103
s 6
f 87/120/120 88/121/121 23/46/101 24/47/98
f 86/119/122 87/120/120 24/47/98 19/41/97
s 5
f 67/97/123 68/98/124 26/49/125 25/48/126
s 2
f 25/48/127 30/54/128 72/103/129 67/97/130
f 30/54/128 29/53/131 71/102/132 72/103/129
s 4
f 29/53/133 28/52/134 70/101/135 71/102/136
s 3
f 69/100/137 70/101/138 28/52/139 27/51/140
f 68/98/141 69/99/137 27/50/140 26/49/142
s 5
f 25/48/126 26/49/125 61/90/143 62/91/144
s 3
f 26/49/142 27/50/140 66/95/145 61/90/146
f 27/51/140 28/52/139 65/94/147 66/96/145
s 4
f 64/93/148 65/94/149 28/52/134 29/53/133
s 2
f 63/92/150 64/93/151 29/53/131 30/54/128
f 62/91/152 63/92/150 30/54/128 25/48/127
s 5
f 49/76/153 50/77/154 56/84/24 55/83/23
s 3
f 50/77/155 51/78/156 57/85/14 56/84/13
f 51/79/156 52/80/157 58/87/17 57/86/14
s 4
f 59/88/21 58/87/20 52/80/158 53/81/159
s 2
f 60/89/9 59/88/12 53/81/160 54/82/161
f 55/83/10 60/89/9 54/82/161 49/76/162
s 5
f 62/91/144 61/90/143 50/77/154 49/76/153
s 2
f 49/76/162 54/82/161 63/92/150 62/91/152
f 54/82/161 53/81/160 64/93/151 63/92/150
s 4
f 53/81/159 52/80/158 65/94/149 64/93/148
s 3
f 66/96/145 65/94/147 52/80/157 51/79/156
f 61/90/146 66/95/145 51/78/156 50/77/155
s 5
f 44/70/163 43/69/164 68/98/124 67/97/123
s 3
f 43/69/165 48/74/166 69/99/137 68/98/141
f 48/75/166 47/73/167 70/101/138 69/100/137
s 4
f 71/102/136 70/101/135 47/73/168 46/72/169
s 2
f 72/103/129 71/102/132 46/72/170 45/71/171
f 67/97/130 72/103/129 45/71/171 44/70/172
s 5
f 74/105/75 73/104/74 43/69/164 44/70/163
s 2
f 44/70/172 45/71/171 75/106/87 74/105/91
f 45/71/171 46/72/170 76/107/88 75/106/87
s 4
f 46/72/169 47/73/168 77/108/84 76/107/83
s 3
f 78/110/79 77/108/82 47/73/167 48/75/166
f 73/104/80 78/109/79 48/74/166 43/69/165
s 10
f 37/62/173 38/63/174 80/112/50 79/111/49
s 8
f 38/63/175 39/64/176 81/113/40 80/112/39
f 39/65/176 40/66/177 82/115/43 81/114/40
s 9
f 83/116/47 82/115/46 40/66/178 41/67/179
s 6
f 84/117/29 83/116/32 41/67/180 42/68/181
f 79/111/30 84/117/29 42/68/181 37/62/182
s 10
f 86/119/114 85/118/113 38/63/174 37/62/173
s 6
f 37/62/182 42/68/181 87/120/120 86/119/122
f 42/68/181 41/67/180 88/121/121 87/120/120
s 9
f 41/67/179 40/66/178 89/122/119 88/121/118
s 8
f 90/124/115 89/122/117 40/66/177 39/65/176
f 85/118/116 90/123/115 39/64/176 38/63/175
s 10
f 32/56/183 31/55/184 92/126/94 91/125/93
s 8
f 31/55/185 36/60/186 93/127/107 92/126/111
f 36/61/186 35/59/187 94/129/108 93/128/107
s 9
f 95/130/106 94/129/105 35/59/188 34/58/189
s 6
f 96/131/99 95/130/102 34/58/190 33/57/191
f 91/125/100 96/131/99 33/57/191 32/56/192
s 10
f 98/133/55 97/132/54 31/55/184 32/56/183
s 6
f 32/56/192 33/57/191 99/134/67 98/133/71
f 33/57/191 34/58/190 100/135/68 99/134/67
s 9
f 34/58/189 35/59/188 101/136/64 100/135/63
s 8
f 102/138/59 101/136/62 35/59/187 36/61/186
f 97/132/60 102/137/59 36/60/186 31/55/185
