# This file uses centimeters as units for non-parametric coordinates.

mtllib Wall_lp.mtl
g default
v -1.000000 0.000000 0.000000
v -0.500000 0.000000 0.000000
v 0.000000 0.000000 0.000000
v -1.000000 1.225404 0.000000
v -0.500000 0.700000 0.000000
v 0.000000 0.300000 0.000000
v -1.000000 1.225404 -3.000000
v -0.500000 0.700000 -3.000000
v 0.000000 0.300000 -3.000000
v -1.000000 0.000000 -3.000000
v -0.500000 0.000000 -3.000000
v 0.000000 0.000000 -3.000000
vt 0.422505 0.007368
vt 0.338750 0.007368
vt 0.749269 0.007368
vt 0.627774 0.007368
vt 0.906781 0.007368
vt 0.856528 0.007368
vt 0.253204 0.259809
vt 0.326967 0.332452
vt 0.856528 0.509901
vt 0.990537 0.509901
vt 0.422505 0.509901
vt 0.906781 0.509901
vt 0.179835 0.205254
vt 0.179835 0.158849
vt 0.627774 0.509901
vt 0.326967 0.158849
vt 0.311532 0.510565
vt 0.273177 0.510565
vt 0.311532 0.380078
vt 0.149294 0.380078
vt 0.253205 0.158849
vt 0.749269 0.509901
vt 0.219481 0.445253
vt 0.311532 0.445253
vt 0.338750 0.509901
vt 0.990537 0.007368
vn 0.000000 0.000000 1.000000
vn 0.000000 0.000000 1.000000
vn 0.000000 0.000000 1.000000
vn 0.000000 0.000000 1.000000
vn 0.000000 0.000000 1.000000
vn 0.000000 0.000000 1.000000
vn 0.724403 0.689377 0.000000
vn 0.679202 0.733952 0.000000
vn 0.679202 0.733952 0.000000
vn 0.724403 0.689377 0.000000
vn 0.624695 0.780869 0.000000
vn 0.624695 0.780869 0.000000
vn 0.000000 0.000000 -1.000000
vn 0.000000 0.000000 -1.000000
vn 0.000000 0.000000 -1.000000
vn 0.000000 0.000000 -1.000000
vn 0.000000 0.000000 -1.000000
vn 0.000000 0.000000 -1.000000
vn 0.000000 -1.000000 0.000000
vn 0.000000 -1.000000 0.000000
vn 0.000000 -1.000000 0.000000
vn 0.000000 -1.000000 0.000000
vn 0.000000 -1.000000 0.000000
vn 0.000000 -1.000000 0.000000
vn 1.000000 0.000000 0.000000
vn 1.000000 0.000000 0.000000
vn 1.000000 0.000000 0.000000
vn 1.000000 0.000000 0.000000
vn -1.000000 0.000000 0.000000
vn -1.000000 0.000000 0.000000
vn -1.000000 0.000000 0.000000
vn -1.000000 0.000000 0.000000
s 1
g Wall
usemtl initialShadingGroup
f 1/19/1 2/24/2 5/23/3 4/20/4
f 2/24/2 3/17/5 6/18/6 5/23/3
s 2
f 4/4/7 5/3/8 8/22/9 7/15/10
f 5/3/8 6/6/11 9/9/12 8/22/9
s 3
f 7/8/13 8/7/14 11/21/15 10/16/16
f 8/7/14 9/13/17 12/14/18 11/21/15
s 4
f 10/11/19 11/25/20 2/2/21 1/1/22
f 11/10/20 12/12/23 3/5/24 2/26/21
s off
f 3/5/25 12/12/26 9/9/27 6/6/28
f 10/11/29 1/1/30 4/4/31 7/15/32
